<svg xmlns="http://www.w3.org/2000/svg" xmlns:xlink="http://www.w3.org/1999/xlink" width="504" zoomAndPan="magnify" viewBox="0 0 378 129.750003" height="173" preserveAspectRatio="xMidYMid meet" version="1.0"><defs><g/><clipPath id="6e39621848"><path d="M 114.6875 0 L 257.660156 0 L 257.660156 128.75 L 114.6875 128.75 Z M 114.6875 0 " clip-rule="nonzero"/></clipPath><clipPath id="fb0fc0acf4"><path d="M 114.6875 42 L 160 42 L 160 73 L 114.6875 73 Z M 114.6875 42 " clip-rule="nonzero"/></clipPath><clipPath id="5973e76f60"><path d="M 131 0 L 243 0 L 243 103 L 131 103 Z M 131 0 " clip-rule="nonzero"/></clipPath><clipPath id="1132c613f4"><path d="M 128.117188 3.523438 L 242.589844 0 L 245.632812 98.761719 L 131.15625 102.285156 Z M 128.117188 3.523438 " clip-rule="nonzero"/></clipPath><clipPath id="a0cdf6bde9"><path d="M 128.117188 3.523438 L 242.589844 0 L 245.632812 98.761719 L 131.15625 102.285156 Z M 128.117188 3.523438 " clip-rule="nonzero"/></clipPath><clipPath id="acb35f3936"><path d="M 215 24 L 219 24 L 219 28 L 215 28 Z M 215 24 " clip-rule="nonzero"/></clipPath><clipPath id="702805769c"><path d="M 128.117188 3.523438 L 242.589844 0 L 245.632812 98.761719 L 131.15625 102.285156 Z M 128.117188 3.523438 " clip-rule="nonzero"/></clipPath><clipPath id="0140e8cc6b"><path d="M 128.117188 3.523438 L 242.589844 0 L 245.632812 98.761719 L 131.15625 102.285156 Z M 128.117188 3.523438 " clip-rule="nonzero"/></clipPath><clipPath id="199fb3eb9c"><path d="M 224 14 L 229 14 L 229 18 L 224 18 Z M 224 14 " clip-rule="nonzero"/></clipPath><clipPath id="88bac49ace"><path d="M 128.117188 3.523438 L 242.589844 0 L 245.632812 98.761719 L 131.15625 102.285156 Z M 128.117188 3.523438 " clip-rule="nonzero"/></clipPath><clipPath id="cb5b783829"><path d="M 128.117188 3.523438 L 242.589844 0 L 245.632812 98.761719 L 131.15625 102.285156 Z M 128.117188 3.523438 " clip-rule="nonzero"/></clipPath><clipPath id="3bd119012e"><path d="M 227 11 L 231 11 L 231 16 L 227 16 Z M 227 11 " clip-rule="nonzero"/></clipPath><clipPath id="dd661dd07a"><path d="M 128.117188 3.523438 L 242.589844 0 L 245.632812 98.761719 L 131.15625 102.285156 Z M 128.117188 3.523438 " clip-rule="nonzero"/></clipPath><clipPath id="c909f15792"><path d="M 128.117188 3.523438 L 242.589844 0 L 245.632812 98.761719 L 131.15625 102.285156 Z M 128.117188 3.523438 " clip-rule="nonzero"/></clipPath><clipPath id="7e6da9200f"><path d="M 229 9 L 234 9 L 234 13 L 229 13 Z M 229 9 " clip-rule="nonzero"/></clipPath><clipPath id="5c1b127f83"><path d="M 128.117188 3.523438 L 242.589844 0 L 245.632812 98.761719 L 131.15625 102.285156 Z M 128.117188 3.523438 " clip-rule="nonzero"/></clipPath><clipPath id="37e9b8e662"><path d="M 128.117188 3.523438 L 242.589844 0 L 245.632812 98.761719 L 131.15625 102.285156 Z M 128.117188 3.523438 " clip-rule="nonzero"/></clipPath><clipPath id="d57cc9a54b"><path d="M 232 7 L 236 7 L 236 11 L 232 11 Z M 232 7 " clip-rule="nonzero"/></clipPath><clipPath id="e2e07205b1"><path d="M 128.117188 3.523438 L 242.589844 0 L 245.632812 98.761719 L 131.15625 102.285156 Z M 128.117188 3.523438 " clip-rule="nonzero"/></clipPath><clipPath id="3a2f00f73c"><path d="M 128.117188 3.523438 L 242.589844 0 L 245.632812 98.761719 L 131.15625 102.285156 Z M 128.117188 3.523438 " clip-rule="nonzero"/></clipPath><clipPath id="f8e64155ab"><path d="M 234 4 L 239 4 L 239 8 L 234 8 Z M 234 4 " clip-rule="nonzero"/></clipPath><clipPath id="3ec529a5df"><path d="M 128.117188 3.523438 L 242.589844 0 L 245.632812 98.761719 L 131.15625 102.285156 Z M 128.117188 3.523438 " clip-rule="nonzero"/></clipPath><clipPath id="310ac3b502"><path d="M 128.117188 3.523438 L 242.589844 0 L 245.632812 98.761719 L 131.15625 102.285156 Z M 128.117188 3.523438 " clip-rule="nonzero"/></clipPath><clipPath id="03564ebccb"><path d="M 217 21 L 222 21 L 222 25 L 217 25 Z M 217 21 " clip-rule="nonzero"/></clipPath><clipPath id="3a8e898226"><path d="M 128.117188 3.523438 L 242.589844 0 L 245.632812 98.761719 L 131.15625 102.285156 Z M 128.117188 3.523438 " clip-rule="nonzero"/></clipPath><clipPath id="f89632d439"><path d="M 128.117188 3.523438 L 242.589844 0 L 245.632812 98.761719 L 131.15625 102.285156 Z M 128.117188 3.523438 " clip-rule="nonzero"/></clipPath><clipPath id="f1d1d03e60"><path d="M 220 19 L 224 19 L 224 23 L 220 23 Z M 220 19 " clip-rule="nonzero"/></clipPath><clipPath id="9568f0a540"><path d="M 128.117188 3.523438 L 242.589844 0 L 245.632812 98.761719 L 131.15625 102.285156 Z M 128.117188 3.523438 " clip-rule="nonzero"/></clipPath><clipPath id="dcfcd80aed"><path d="M 128.117188 3.523438 L 242.589844 0 L 245.632812 98.761719 L 131.15625 102.285156 Z M 128.117188 3.523438 " clip-rule="nonzero"/></clipPath><clipPath id="77d93c9bca"><path d="M 222 16 L 226 16 L 226 20 L 222 20 Z M 222 16 " clip-rule="nonzero"/></clipPath><clipPath id="f6ef2bdb2c"><path d="M 128.117188 3.523438 L 242.589844 0 L 245.632812 98.761719 L 131.15625 102.285156 Z M 128.117188 3.523438 " clip-rule="nonzero"/></clipPath><clipPath id="2e036e2b13"><path d="M 128.117188 3.523438 L 242.589844 0 L 245.632812 98.761719 L 131.15625 102.285156 Z M 128.117188 3.523438 " clip-rule="nonzero"/></clipPath><clipPath id="065432da29"><path d="M 208 27 L 215 27 L 215 35 L 208 35 Z M 208 27 " clip-rule="nonzero"/></clipPath><clipPath id="1573c534e4"><path d="M 128.117188 3.523438 L 242.589844 0 L 245.632812 98.761719 L 131.15625 102.285156 Z M 128.117188 3.523438 " clip-rule="nonzero"/></clipPath><clipPath id="f5009b0069"><path d="M 128.117188 3.523438 L 242.589844 0 L 245.632812 98.761719 L 131.15625 102.285156 Z M 128.117188 3.523438 " clip-rule="nonzero"/></clipPath><clipPath id="be96afc1f2"><path d="M 234 6 L 236 6 L 236 7 L 234 7 Z M 234 6 " clip-rule="nonzero"/></clipPath><clipPath id="5c14d515bf"><path d="M 128.117188 3.523438 L 242.589844 0 L 245.632812 98.761719 L 131.15625 102.285156 Z M 128.117188 3.523438 " clip-rule="nonzero"/></clipPath><clipPath id="3f2deb0555"><path d="M 128.117188 3.523438 L 242.589844 0 L 245.632812 98.761719 L 131.15625 102.285156 Z M 128.117188 3.523438 " clip-rule="nonzero"/></clipPath><clipPath id="4089634710"><path d="M 231 11 L 232 11 L 232 12 L 231 12 Z M 231 11 " clip-rule="nonzero"/></clipPath><clipPath id="1dd4846f3e"><path d="M 128.117188 3.523438 L 242.589844 0 L 245.632812 98.761719 L 131.15625 102.285156 Z M 128.117188 3.523438 " clip-rule="nonzero"/></clipPath><clipPath id="a0bf28433b"><path d="M 128.117188 3.523438 L 242.589844 0 L 245.632812 98.761719 L 131.15625 102.285156 Z M 128.117188 3.523438 " clip-rule="nonzero"/></clipPath><clipPath id="d78673d08c"><path d="M 227 15 L 229 15 L 229 17 L 227 17 Z M 227 15 " clip-rule="nonzero"/></clipPath><clipPath id="5ce8553e81"><path d="M 128.117188 3.523438 L 242.589844 0 L 245.632812 98.761719 L 131.15625 102.285156 Z M 128.117188 3.523438 " clip-rule="nonzero"/></clipPath><clipPath id="b348d94ca9"><path d="M 128.117188 3.523438 L 242.589844 0 L 245.632812 98.761719 L 131.15625 102.285156 Z M 128.117188 3.523438 " clip-rule="nonzero"/></clipPath><clipPath id="36b4aa0929"><path d="M 225 18 L 226 18 L 226 20 L 225 20 Z M 225 18 " clip-rule="nonzero"/></clipPath><clipPath id="426880e336"><path d="M 128.117188 3.523438 L 242.589844 0 L 245.632812 98.761719 L 131.15625 102.285156 Z M 128.117188 3.523438 " clip-rule="nonzero"/></clipPath><clipPath id="4fc2569c4f"><path d="M 128.117188 3.523438 L 242.589844 0 L 245.632812 98.761719 L 131.15625 102.285156 Z M 128.117188 3.523438 " clip-rule="nonzero"/></clipPath><clipPath id="497ef08aea"><path d="M 221 22 L 222 22 L 222 23 L 221 23 Z M 221 22 " clip-rule="nonzero"/></clipPath><clipPath id="e79ea218cc"><path d="M 128.117188 3.523438 L 242.589844 0 L 245.632812 98.761719 L 131.15625 102.285156 Z M 128.117188 3.523438 " clip-rule="nonzero"/></clipPath><clipPath id="efc0156b2f"><path d="M 128.117188 3.523438 L 242.589844 0 L 245.632812 98.761719 L 131.15625 102.285156 Z M 128.117188 3.523438 " clip-rule="nonzero"/></clipPath><clipPath id="10ed9d506f"><path d="M 217 25 L 218 25 L 218 26 L 217 26 Z M 217 25 " clip-rule="nonzero"/></clipPath><clipPath id="c66c0c3152"><path d="M 128.117188 3.523438 L 242.589844 0 L 245.632812 98.761719 L 131.15625 102.285156 Z M 128.117188 3.523438 " clip-rule="nonzero"/></clipPath><clipPath id="f393b7cc2d"><path d="M 128.117188 3.523438 L 242.589844 0 L 245.632812 98.761719 L 131.15625 102.285156 Z M 128.117188 3.523438 " clip-rule="nonzero"/></clipPath><clipPath id="a49586ea6f"><path d="M 212 28 L 213 28 L 213 30 L 212 30 Z M 212 28 " clip-rule="nonzero"/></clipPath><clipPath id="5cb6f4ff46"><path d="M 128.117188 3.523438 L 242.589844 0 L 245.632812 98.761719 L 131.15625 102.285156 Z M 128.117188 3.523438 " clip-rule="nonzero"/></clipPath><clipPath id="66c66a1864"><path d="M 128.117188 3.523438 L 242.589844 0 L 245.632812 98.761719 L 131.15625 102.285156 Z M 128.117188 3.523438 " clip-rule="nonzero"/></clipPath><clipPath id="5b09ed090e"><path d="M 207 33 L 208 33 L 208 34 L 207 34 Z M 207 33 " clip-rule="nonzero"/></clipPath><clipPath id="79a4bcc336"><path d="M 128.117188 3.523438 L 242.589844 0 L 245.632812 98.761719 L 131.15625 102.285156 Z M 128.117188 3.523438 " clip-rule="nonzero"/></clipPath><clipPath id="0ab3bc0e6d"><path d="M 128.117188 3.523438 L 242.589844 0 L 245.632812 98.761719 L 131.15625 102.285156 Z M 128.117188 3.523438 " clip-rule="nonzero"/></clipPath><clipPath id="7447cda872"><path d="M 205 33 L 206 33 L 206 34 L 205 34 Z M 205 33 " clip-rule="nonzero"/></clipPath><clipPath id="da4a39d5a1"><path d="M 128.117188 3.523438 L 242.589844 0 L 245.632812 98.761719 L 131.15625 102.285156 Z M 128.117188 3.523438 " clip-rule="nonzero"/></clipPath><clipPath id="1c13bf3629"><path d="M 128.117188 3.523438 L 242.589844 0 L 245.632812 98.761719 L 131.15625 102.285156 Z M 128.117188 3.523438 " clip-rule="nonzero"/></clipPath><clipPath id="3ed90ebd4f"><path d="M 209 30 L 210 30 L 210 31 L 209 31 Z M 209 30 " clip-rule="nonzero"/></clipPath><clipPath id="71b68ac780"><path d="M 128.117188 3.523438 L 242.589844 0 L 245.632812 98.761719 L 131.15625 102.285156 Z M 128.117188 3.523438 " clip-rule="nonzero"/></clipPath><clipPath id="74862fede1"><path d="M 128.117188 3.523438 L 242.589844 0 L 245.632812 98.761719 L 131.15625 102.285156 Z M 128.117188 3.523438 " clip-rule="nonzero"/></clipPath><clipPath id="77a0481a65"><path d="M 218 18 L 219 18 L 219 20 L 218 20 Z M 218 18 " clip-rule="nonzero"/></clipPath><clipPath id="3b2989e8fa"><path d="M 128.117188 3.523438 L 242.589844 0 L 245.632812 98.761719 L 131.15625 102.285156 Z M 128.117188 3.523438 " clip-rule="nonzero"/></clipPath><clipPath id="25b4523e74"><path d="M 128.117188 3.523438 L 242.589844 0 L 245.632812 98.761719 L 131.15625 102.285156 Z M 128.117188 3.523438 " clip-rule="nonzero"/></clipPath><clipPath id="4c8e0401f3"><path d="M 221 15 L 222 15 L 222 16 L 221 16 Z M 221 15 " clip-rule="nonzero"/></clipPath><clipPath id="04951f1fae"><path d="M 128.117188 3.523438 L 242.589844 0 L 245.632812 98.761719 L 131.15625 102.285156 Z M 128.117188 3.523438 " clip-rule="nonzero"/></clipPath><clipPath id="3466edfccf"><path d="M 128.117188 3.523438 L 242.589844 0 L 245.632812 98.761719 L 131.15625 102.285156 Z M 128.117188 3.523438 " clip-rule="nonzero"/></clipPath><clipPath id="4d88243360"><path d="M 228 10 L 229 10 L 229 11 L 228 11 Z M 228 10 " clip-rule="nonzero"/></clipPath><clipPath id="6f1ec9d8c7"><path d="M 128.117188 3.523438 L 242.589844 0 L 245.632812 98.761719 L 131.15625 102.285156 Z M 128.117188 3.523438 " clip-rule="nonzero"/></clipPath><clipPath id="250343ca20"><path d="M 128.117188 3.523438 L 242.589844 0 L 245.632812 98.761719 L 131.15625 102.285156 Z M 128.117188 3.523438 " clip-rule="nonzero"/></clipPath><clipPath id="a436523284"><path d="M 233 6 L 234 6 L 234 7 L 233 7 Z M 233 6 " clip-rule="nonzero"/></clipPath><clipPath id="39fb36a55b"><path d="M 128.117188 3.523438 L 242.589844 0 L 245.632812 98.761719 L 131.15625 102.285156 Z M 128.117188 3.523438 " clip-rule="nonzero"/></clipPath><clipPath id="d55ae687b3"><path d="M 128.117188 3.523438 L 242.589844 0 L 245.632812 98.761719 L 131.15625 102.285156 Z M 128.117188 3.523438 " clip-rule="nonzero"/></clipPath><clipPath id="e5c7c2c4c1"><path d="M 238 3 L 239 3 L 239 4 L 238 4 Z M 238 3 " clip-rule="nonzero"/></clipPath><clipPath id="980c3596bb"><path d="M 128.117188 3.523438 L 242.589844 0 L 245.632812 98.761719 L 131.15625 102.285156 Z M 128.117188 3.523438 " clip-rule="nonzero"/></clipPath><clipPath id="eba0996b46"><path d="M 128.117188 3.523438 L 242.589844 0 L 245.632812 98.761719 L 131.15625 102.285156 Z M 128.117188 3.523438 " clip-rule="nonzero"/></clipPath><clipPath id="7a2861ffda"><path d="M 240 1 L 242 1 L 242 2 L 240 2 Z M 240 1 " clip-rule="nonzero"/></clipPath><clipPath id="329861c8f7"><path d="M 128.117188 3.523438 L 242.589844 0 L 245.632812 98.761719 L 131.15625 102.285156 Z M 128.117188 3.523438 " clip-rule="nonzero"/></clipPath><clipPath id="9f5865ab72"><path d="M 128.117188 3.523438 L 242.589844 0 L 245.632812 98.761719 L 131.15625 102.285156 Z M 128.117188 3.523438 " clip-rule="nonzero"/></clipPath><clipPath id="79dd04edb6"><path d="M 233 8 L 234 8 L 234 9 L 233 9 Z M 233 8 " clip-rule="nonzero"/></clipPath><clipPath id="1d4b9b1177"><path d="M 128.117188 3.523438 L 242.589844 0 L 245.632812 98.761719 L 131.15625 102.285156 Z M 128.117188 3.523438 " clip-rule="nonzero"/></clipPath><clipPath id="fda798df5a"><path d="M 128.117188 3.523438 L 242.589844 0 L 245.632812 98.761719 L 131.15625 102.285156 Z M 128.117188 3.523438 " clip-rule="nonzero"/></clipPath><clipPath id="52ffd9398c"><path d="M 210 28 L 211 28 L 211 29 L 210 29 Z M 210 28 " clip-rule="nonzero"/></clipPath><clipPath id="6b8ae54785"><path d="M 128.117188 3.523438 L 242.589844 0 L 245.632812 98.761719 L 131.15625 102.285156 Z M 128.117188 3.523438 " clip-rule="nonzero"/></clipPath><clipPath id="f436f339d5"><path d="M 128.117188 3.523438 L 242.589844 0 L 245.632812 98.761719 L 131.15625 102.285156 Z M 128.117188 3.523438 " clip-rule="nonzero"/></clipPath><clipPath id="34caecaed8"><path d="M 204 35 L 205 35 L 205 36 L 204 36 Z M 204 35 " clip-rule="nonzero"/></clipPath><clipPath id="ddde3a774d"><path d="M 128.117188 3.523438 L 242.589844 0 L 245.632812 98.761719 L 131.15625 102.285156 Z M 128.117188 3.523438 " clip-rule="nonzero"/></clipPath><clipPath id="9ac196280d"><path d="M 128.117188 3.523438 L 242.589844 0 L 245.632812 98.761719 L 131.15625 102.285156 Z M 128.117188 3.523438 " clip-rule="nonzero"/></clipPath><clipPath id="7ccf245090"><path d="M 200 40 L 201 40 L 201 41 L 200 41 Z M 200 40 " clip-rule="nonzero"/></clipPath><clipPath id="2f47978e38"><path d="M 128.117188 3.523438 L 242.589844 0 L 245.632812 98.761719 L 131.15625 102.285156 Z M 128.117188 3.523438 " clip-rule="nonzero"/></clipPath><clipPath id="33e5c9f735"><path d="M 128.117188 3.523438 L 242.589844 0 L 245.632812 98.761719 L 131.15625 102.285156 Z M 128.117188 3.523438 " clip-rule="nonzero"/></clipPath><clipPath id="a7c4488f69"><path d="M 194 44 L 195 44 L 195 45 L 194 45 Z M 194 44 " clip-rule="nonzero"/></clipPath><clipPath id="9a1f833415"><path d="M 128.117188 3.523438 L 242.589844 0 L 245.632812 98.761719 L 131.15625 102.285156 Z M 128.117188 3.523438 " clip-rule="nonzero"/></clipPath><clipPath id="8d1a642060"><path d="M 128.117188 3.523438 L 242.589844 0 L 245.632812 98.761719 L 131.15625 102.285156 Z M 128.117188 3.523438 " clip-rule="nonzero"/></clipPath><clipPath id="779cb326a6"><path d="M 186 50 L 187 50 L 187 52 L 186 52 Z M 186 50 " clip-rule="nonzero"/></clipPath><clipPath id="ad8bb8ed0b"><path d="M 128.117188 3.523438 L 242.589844 0 L 245.632812 98.761719 L 131.15625 102.285156 Z M 128.117188 3.523438 " clip-rule="nonzero"/></clipPath><clipPath id="c3053f5598"><path d="M 128.117188 3.523438 L 242.589844 0 L 245.632812 98.761719 L 131.15625 102.285156 Z M 128.117188 3.523438 " clip-rule="nonzero"/></clipPath><clipPath id="77d626f09b"><path d="M 184 53 L 186 53 L 186 54 L 184 54 Z M 184 53 " clip-rule="nonzero"/></clipPath><clipPath id="f57e482db1"><path d="M 128.117188 3.523438 L 242.589844 0 L 245.632812 98.761719 L 131.15625 102.285156 Z M 128.117188 3.523438 " clip-rule="nonzero"/></clipPath><clipPath id="77c5150a3e"><path d="M 128.117188 3.523438 L 242.589844 0 L 245.632812 98.761719 L 131.15625 102.285156 Z M 128.117188 3.523438 " clip-rule="nonzero"/></clipPath><clipPath id="3ca20d1161"><path d="M 181 58 L 182 58 L 182 59 L 181 59 Z M 181 58 " clip-rule="nonzero"/></clipPath><clipPath id="4e29ca7ad9"><path d="M 128.117188 3.523438 L 242.589844 0 L 245.632812 98.761719 L 131.15625 102.285156 Z M 128.117188 3.523438 " clip-rule="nonzero"/></clipPath><clipPath id="78404cbe63"><path d="M 128.117188 3.523438 L 242.589844 0 L 245.632812 98.761719 L 131.15625 102.285156 Z M 128.117188 3.523438 " clip-rule="nonzero"/></clipPath><clipPath id="4b7c38a011"><path d="M 173 64 L 175 64 L 175 65 L 173 65 Z M 173 64 " clip-rule="nonzero"/></clipPath><clipPath id="f7062f123f"><path d="M 128.117188 3.523438 L 242.589844 0 L 245.632812 98.761719 L 131.15625 102.285156 Z M 128.117188 3.523438 " clip-rule="nonzero"/></clipPath><clipPath id="13b31b02ab"><path d="M 128.117188 3.523438 L 242.589844 0 L 245.632812 98.761719 L 131.15625 102.285156 Z M 128.117188 3.523438 " clip-rule="nonzero"/></clipPath><clipPath id="3339762098"><path d="M 169 67 L 171 67 L 171 68 L 169 68 Z M 169 67 " clip-rule="nonzero"/></clipPath><clipPath id="5775049777"><path d="M 128.117188 3.523438 L 242.589844 0 L 245.632812 98.761719 L 131.15625 102.285156 Z M 128.117188 3.523438 " clip-rule="nonzero"/></clipPath><clipPath id="5c3b966c2d"><path d="M 128.117188 3.523438 L 242.589844 0 L 245.632812 98.761719 L 131.15625 102.285156 Z M 128.117188 3.523438 " clip-rule="nonzero"/></clipPath><clipPath id="d713379170"><path d="M 166 72 L 167 72 L 167 74 L 166 74 Z M 166 72 " clip-rule="nonzero"/></clipPath><clipPath id="ec3aea15c4"><path d="M 128.117188 3.523438 L 242.589844 0 L 245.632812 98.761719 L 131.15625 102.285156 Z M 128.117188 3.523438 " clip-rule="nonzero"/></clipPath><clipPath id="c1c23c8603"><path d="M 128.117188 3.523438 L 242.589844 0 L 245.632812 98.761719 L 131.15625 102.285156 Z M 128.117188 3.523438 " clip-rule="nonzero"/></clipPath><clipPath id="c60722730c"><path d="M 162 77 L 163 77 L 163 78 L 162 78 Z M 162 77 " clip-rule="nonzero"/></clipPath><clipPath id="a7852b6806"><path d="M 128.117188 3.523438 L 242.589844 0 L 245.632812 98.761719 L 131.15625 102.285156 Z M 128.117188 3.523438 " clip-rule="nonzero"/></clipPath><clipPath id="fe1bce6ed9"><path d="M 128.117188 3.523438 L 242.589844 0 L 245.632812 98.761719 L 131.15625 102.285156 Z M 128.117188 3.523438 " clip-rule="nonzero"/></clipPath><clipPath id="3aa6ea12e9"><path d="M 153 83 L 155 83 L 155 84 L 153 84 Z M 153 83 " clip-rule="nonzero"/></clipPath><clipPath id="e35eda6ef0"><path d="M 128.117188 3.523438 L 242.589844 0 L 245.632812 98.761719 L 131.15625 102.285156 Z M 128.117188 3.523438 " clip-rule="nonzero"/></clipPath><clipPath id="bc67f62f8e"><path d="M 128.117188 3.523438 L 242.589844 0 L 245.632812 98.761719 L 131.15625 102.285156 Z M 128.117188 3.523438 " clip-rule="nonzero"/></clipPath><clipPath id="0e575a5602"><path d="M 149 87 L 150 87 L 150 88 L 149 88 Z M 149 87 " clip-rule="nonzero"/></clipPath><clipPath id="0f28f68f1a"><path d="M 128.117188 3.523438 L 242.589844 0 L 245.632812 98.761719 L 131.15625 102.285156 Z M 128.117188 3.523438 " clip-rule="nonzero"/></clipPath><clipPath id="a543a23509"><path d="M 128.117188 3.523438 L 242.589844 0 L 245.632812 98.761719 L 131.15625 102.285156 Z M 128.117188 3.523438 " clip-rule="nonzero"/></clipPath><clipPath id="81bb90b763"><path d="M 146 89 L 148 89 L 148 90 L 146 90 Z M 146 89 " clip-rule="nonzero"/></clipPath><clipPath id="f04b24c445"><path d="M 128.117188 3.523438 L 242.589844 0 L 245.632812 98.761719 L 131.15625 102.285156 Z M 128.117188 3.523438 " clip-rule="nonzero"/></clipPath><clipPath id="31b9177878"><path d="M 128.117188 3.523438 L 242.589844 0 L 245.632812 98.761719 L 131.15625 102.285156 Z M 128.117188 3.523438 " clip-rule="nonzero"/></clipPath><clipPath id="a7a8307fce"><path d="M 141 92 L 143 92 L 143 93 L 141 93 Z M 141 92 " clip-rule="nonzero"/></clipPath><clipPath id="84f49e9a79"><path d="M 128.117188 3.523438 L 242.589844 0 L 245.632812 98.761719 L 131.15625 102.285156 Z M 128.117188 3.523438 " clip-rule="nonzero"/></clipPath><clipPath id="ae58b2aad1"><path d="M 128.117188 3.523438 L 242.589844 0 L 245.632812 98.761719 L 131.15625 102.285156 Z M 128.117188 3.523438 " clip-rule="nonzero"/></clipPath><clipPath id="2db191ee8a"><path d="M 139 95 L 140 95 L 140 96 L 139 96 Z M 139 95 " clip-rule="nonzero"/></clipPath><clipPath id="bb3c056400"><path d="M 128.117188 3.523438 L 242.589844 0 L 245.632812 98.761719 L 131.15625 102.285156 Z M 128.117188 3.523438 " clip-rule="nonzero"/></clipPath><clipPath id="ac5ce0e086"><path d="M 128.117188 3.523438 L 242.589844 0 L 245.632812 98.761719 L 131.15625 102.285156 Z M 128.117188 3.523438 " clip-rule="nonzero"/></clipPath><clipPath id="552d092104"><path d="M 134 98 L 136 98 L 136 99 L 134 99 Z M 134 98 " clip-rule="nonzero"/></clipPath><clipPath id="20413c753a"><path d="M 128.117188 3.523438 L 242.589844 0 L 245.632812 98.761719 L 131.15625 102.285156 Z M 128.117188 3.523438 " clip-rule="nonzero"/></clipPath><clipPath id="ac8bd4d044"><path d="M 128.117188 3.523438 L 242.589844 0 L 245.632812 98.761719 L 131.15625 102.285156 Z M 128.117188 3.523438 " clip-rule="nonzero"/></clipPath><clipPath id="88791b33af"><path d="M 137 98 L 138 98 L 138 99 L 137 99 Z M 137 98 " clip-rule="nonzero"/></clipPath><clipPath id="51a98713d6"><path d="M 128.117188 3.523438 L 242.589844 0 L 245.632812 98.761719 L 131.15625 102.285156 Z M 128.117188 3.523438 " clip-rule="nonzero"/></clipPath><clipPath id="dfa5c83c49"><path d="M 128.117188 3.523438 L 242.589844 0 L 245.632812 98.761719 L 131.15625 102.285156 Z M 128.117188 3.523438 " clip-rule="nonzero"/></clipPath><clipPath id="04d86bea16"><path d="M 150 89 L 151 89 L 151 90 L 150 90 Z M 150 89 " clip-rule="nonzero"/></clipPath><clipPath id="70c6673d47"><path d="M 128.117188 3.523438 L 242.589844 0 L 245.632812 98.761719 L 131.15625 102.285156 Z M 128.117188 3.523438 " clip-rule="nonzero"/></clipPath><clipPath id="1125c7e62a"><path d="M 128.117188 3.523438 L 242.589844 0 L 245.632812 98.761719 L 131.15625 102.285156 Z M 128.117188 3.523438 " clip-rule="nonzero"/></clipPath><clipPath id="6be226d22b"><path d="M 165 77 L 166 77 L 166 78 L 165 78 Z M 165 77 " clip-rule="nonzero"/></clipPath><clipPath id="ad548b49ce"><path d="M 128.117188 3.523438 L 242.589844 0 L 245.632812 98.761719 L 131.15625 102.285156 Z M 128.117188 3.523438 " clip-rule="nonzero"/></clipPath><clipPath id="eb2517123d"><path d="M 128.117188 3.523438 L 242.589844 0 L 245.632812 98.761719 L 131.15625 102.285156 Z M 128.117188 3.523438 " clip-rule="nonzero"/></clipPath><clipPath id="ced3c55ad9"><path d="M 173 69 L 174 69 L 174 70 L 173 70 Z M 173 69 " clip-rule="nonzero"/></clipPath><clipPath id="a2be23b71c"><path d="M 128.117188 3.523438 L 242.589844 0 L 245.632812 98.761719 L 131.15625 102.285156 Z M 128.117188 3.523438 " clip-rule="nonzero"/></clipPath><clipPath id="dce839d732"><path d="M 128.117188 3.523438 L 242.589844 0 L 245.632812 98.761719 L 131.15625 102.285156 Z M 128.117188 3.523438 " clip-rule="nonzero"/></clipPath><clipPath id="ed4cf8e745"><path d="M 181 59 L 182 59 L 182 60 L 181 60 Z M 181 59 " clip-rule="nonzero"/></clipPath><clipPath id="3bb17f91b4"><path d="M 128.117188 3.523438 L 242.589844 0 L 245.632812 98.761719 L 131.15625 102.285156 Z M 128.117188 3.523438 " clip-rule="nonzero"/></clipPath><clipPath id="db128bead2"><path d="M 128.117188 3.523438 L 242.589844 0 L 245.632812 98.761719 L 131.15625 102.285156 Z M 128.117188 3.523438 " clip-rule="nonzero"/></clipPath><clipPath id="dc11192855"><path d="M 188 51 L 189 51 L 189 52 L 188 52 Z M 188 51 " clip-rule="nonzero"/></clipPath><clipPath id="f3a27d44f2"><path d="M 128.117188 3.523438 L 242.589844 0 L 245.632812 98.761719 L 131.15625 102.285156 Z M 128.117188 3.523438 " clip-rule="nonzero"/></clipPath><clipPath id="37a1fc5184"><path d="M 128.117188 3.523438 L 242.589844 0 L 245.632812 98.761719 L 131.15625 102.285156 Z M 128.117188 3.523438 " clip-rule="nonzero"/></clipPath><clipPath id="daabb4cc08"><path d="M 198 43 L 199 43 L 199 44 L 198 44 Z M 198 43 " clip-rule="nonzero"/></clipPath><clipPath id="f4d1df52fd"><path d="M 128.117188 3.523438 L 242.589844 0 L 245.632812 98.761719 L 131.15625 102.285156 Z M 128.117188 3.523438 " clip-rule="nonzero"/></clipPath><clipPath id="49f144dcc2"><path d="M 128.117188 3.523438 L 242.589844 0 L 245.632812 98.761719 L 131.15625 102.285156 Z M 128.117188 3.523438 " clip-rule="nonzero"/></clipPath><clipPath id="10cb4a6c42"><path d="M 131 47 L 156 47 L 156 70 L 131 70 Z M 131 47 " clip-rule="nonzero"/></clipPath><clipPath id="76f0f21355"><path d="M 130.667969 56.355469 L 143.269531 44.621094 L 156.53125 58.863281 L 143.933594 70.597656 Z M 130.667969 56.355469 " clip-rule="nonzero"/></clipPath><clipPath id="4d29dc4c62"><path d="M 130.667969 56.355469 L 143.269531 44.621094 L 156.53125 58.863281 L 143.933594 70.597656 Z M 130.667969 56.355469 " clip-rule="nonzero"/></clipPath><clipPath id="0b0b6051b1"><path d="M 167 81 L 179 81 L 179 94 L 167 94 Z M 167 81 " clip-rule="nonzero"/></clipPath><clipPath id="75d8f6d9a6"><path d="M 161.898438 90.808594 L 176.71875 75.988281 L 214.832031 114.097656 L 200.007812 128.917969 Z M 161.898438 90.808594 " clip-rule="nonzero"/></clipPath><clipPath id="22fa229deb"><path d="M 161.898438 90.808594 L 176.71875 75.988281 L 214.832031 114.097656 L 200.007812 128.917969 Z M 161.898438 90.808594 " clip-rule="nonzero"/></clipPath><clipPath id="3a9cd0d53d"><path d="M 161.898438 90.808594 L 176.71875 75.988281 L 214.832031 114.097656 L 200.007812 128.917969 Z M 161.898438 90.808594 " clip-rule="nonzero"/></clipPath><clipPath id="8fa654e52d"><path d="M 161.925781 90.835938 L 176.746094 76.015625 L 214.800781 114.070312 L 199.980469 128.890625 Z M 161.925781 90.835938 " clip-rule="nonzero"/></clipPath><clipPath id="2d43ae9645"><path d="M 170 83 L 177 83 L 177 86 L 170 86 Z M 170 83 " clip-rule="nonzero"/></clipPath><clipPath id="05c23a6a94"><path d="M 161.898438 90.808594 L 176.71875 75.988281 L 214.832031 114.097656 L 200.007812 128.917969 Z M 161.898438 90.808594 " clip-rule="nonzero"/></clipPath><clipPath id="e5867705f1"><path d="M 161.898438 90.808594 L 176.71875 75.988281 L 214.832031 114.097656 L 200.007812 128.917969 Z M 161.898438 90.808594 " clip-rule="nonzero"/></clipPath><clipPath id="1a6ae9e707"><path d="M 161.898438 90.808594 L 176.71875 75.988281 L 214.832031 114.097656 L 200.007812 128.917969 Z M 161.898438 90.808594 " clip-rule="nonzero"/></clipPath><clipPath id="fa8290f950"><path d="M 161.925781 90.835938 L 176.746094 76.015625 L 214.800781 114.070312 L 199.980469 128.890625 Z M 161.925781 90.835938 " clip-rule="nonzero"/></clipPath><clipPath id="6a7a8fc84b"><path d="M 169 85 L 177 85 L 177 87 L 169 87 Z M 169 85 " clip-rule="nonzero"/></clipPath><clipPath id="5c8862c403"><path d="M 161.898438 90.808594 L 176.71875 75.988281 L 214.832031 114.097656 L 200.007812 128.917969 Z M 161.898438 90.808594 " clip-rule="nonzero"/></clipPath><clipPath id="0fd962b583"><path d="M 161.898438 90.808594 L 176.71875 75.988281 L 214.832031 114.097656 L 200.007812 128.917969 Z M 161.898438 90.808594 " clip-rule="nonzero"/></clipPath><clipPath id="d047804463"><path d="M 161.898438 90.808594 L 176.71875 75.988281 L 214.832031 114.097656 L 200.007812 128.917969 Z M 161.898438 90.808594 " clip-rule="nonzero"/></clipPath><clipPath id="1651a0ca42"><path d="M 161.925781 90.835938 L 176.746094 76.015625 L 214.800781 114.070312 L 199.980469 128.890625 Z M 161.925781 90.835938 " clip-rule="nonzero"/></clipPath><clipPath id="e44bd4105c"><path d="M 169 86 L 177 86 L 177 89 L 169 89 Z M 169 86 " clip-rule="nonzero"/></clipPath><clipPath id="a583e24956"><path d="M 161.898438 90.808594 L 176.71875 75.988281 L 214.832031 114.097656 L 200.007812 128.917969 Z M 161.898438 90.808594 " clip-rule="nonzero"/></clipPath><clipPath id="c5a5250497"><path d="M 161.898438 90.808594 L 176.71875 75.988281 L 214.832031 114.097656 L 200.007812 128.917969 Z M 161.898438 90.808594 " clip-rule="nonzero"/></clipPath><clipPath id="912552d8e6"><path d="M 161.898438 90.808594 L 176.71875 75.988281 L 214.832031 114.097656 L 200.007812 128.917969 Z M 161.898438 90.808594 " clip-rule="nonzero"/></clipPath><clipPath id="1562ae7846"><path d="M 161.925781 90.835938 L 176.746094 76.015625 L 214.800781 114.070312 L 199.980469 128.890625 Z M 161.925781 90.835938 " clip-rule="nonzero"/></clipPath><clipPath id="3d9b7785eb"><path d="M 169 88 L 177 88 L 177 90 L 169 90 Z M 169 88 " clip-rule="nonzero"/></clipPath><clipPath id="a02bf4ddef"><path d="M 161.898438 90.808594 L 176.71875 75.988281 L 214.832031 114.097656 L 200.007812 128.917969 Z M 161.898438 90.808594 " clip-rule="nonzero"/></clipPath><clipPath id="0ac8140523"><path d="M 161.898438 90.808594 L 176.71875 75.988281 L 214.832031 114.097656 L 200.007812 128.917969 Z M 161.898438 90.808594 " clip-rule="nonzero"/></clipPath><clipPath id="8f64a15d5f"><path d="M 161.898438 90.808594 L 176.71875 75.988281 L 214.832031 114.097656 L 200.007812 128.917969 Z M 161.898438 90.808594 " clip-rule="nonzero"/></clipPath><clipPath id="73cca41aea"><path d="M 161.925781 90.835938 L 176.746094 76.015625 L 214.800781 114.070312 L 199.980469 128.890625 Z M 161.925781 90.835938 " clip-rule="nonzero"/></clipPath><clipPath id="c05405d172"><path d="M 169 90 L 176 90 L 176 92 L 169 92 Z M 169 90 " clip-rule="nonzero"/></clipPath><clipPath id="4b2b303a39"><path d="M 161.898438 90.808594 L 176.71875 75.988281 L 214.832031 114.097656 L 200.007812 128.917969 Z M 161.898438 90.808594 " clip-rule="nonzero"/></clipPath><clipPath id="a3fe59c636"><path d="M 161.898438 90.808594 L 176.71875 75.988281 L 214.832031 114.097656 L 200.007812 128.917969 Z M 161.898438 90.808594 " clip-rule="nonzero"/></clipPath><clipPath id="8d01361fa9"><path d="M 161.898438 90.808594 L 176.71875 75.988281 L 214.832031 114.097656 L 200.007812 128.917969 Z M 161.898438 90.808594 " clip-rule="nonzero"/></clipPath><clipPath id="c137c71fa6"><path d="M 161.925781 90.835938 L 176.746094 76.015625 L 214.800781 114.070312 L 199.980469 128.890625 Z M 161.925781 90.835938 " clip-rule="nonzero"/></clipPath><clipPath id="85e87701f0"><path d="M 169 83 L 181 83 L 181 96 L 169 96 Z M 169 83 " clip-rule="nonzero"/></clipPath><clipPath id="dbecd072c3"><path d="M 161.898438 90.808594 L 176.71875 75.988281 L 214.832031 114.097656 L 200.007812 128.917969 Z M 161.898438 90.808594 " clip-rule="nonzero"/></clipPath><clipPath id="8f6c8642e9"><path d="M 161.898438 90.808594 L 176.71875 75.988281 L 214.832031 114.097656 L 200.007812 128.917969 Z M 161.898438 90.808594 " clip-rule="nonzero"/></clipPath><clipPath id="6a4dbb82d3"><path d="M 161.898438 90.808594 L 176.71875 75.988281 L 214.832031 114.097656 L 200.007812 128.917969 Z M 161.898438 90.808594 " clip-rule="nonzero"/></clipPath><clipPath id="4790b220eb"><path d="M 161.925781 90.835938 L 176.746094 76.015625 L 214.800781 114.070312 L 199.980469 128.890625 Z M 161.925781 90.835938 " clip-rule="nonzero"/></clipPath><clipPath id="146ba2b2e2"><path d="M 171 85 L 183 85 L 183 98 L 171 98 Z M 171 85 " clip-rule="nonzero"/></clipPath><clipPath id="ef768fab8b"><path d="M 161.898438 90.808594 L 176.71875 75.988281 L 214.832031 114.097656 L 200.007812 128.917969 Z M 161.898438 90.808594 " clip-rule="nonzero"/></clipPath><clipPath id="817c74cae1"><path d="M 161.898438 90.808594 L 176.71875 75.988281 L 214.832031 114.097656 L 200.007812 128.917969 Z M 161.898438 90.808594 " clip-rule="nonzero"/></clipPath><clipPath id="a42b744b76"><path d="M 161.898438 90.808594 L 176.71875 75.988281 L 214.832031 114.097656 L 200.007812 128.917969 Z M 161.898438 90.808594 " clip-rule="nonzero"/></clipPath><clipPath id="6639fa659d"><path d="M 161.925781 90.835938 L 176.746094 76.015625 L 214.800781 114.070312 L 199.980469 128.890625 Z M 161.925781 90.835938 " clip-rule="nonzero"/></clipPath><clipPath id="24f2626de0"><path d="M 190 104 L 202 104 L 202 116 L 190 116 Z M 190 104 " clip-rule="nonzero"/></clipPath><clipPath id="50fe384f01"><path d="M 161.898438 90.808594 L 176.71875 75.988281 L 214.832031 114.097656 L 200.007812 128.917969 Z M 161.898438 90.808594 " clip-rule="nonzero"/></clipPath><clipPath id="c3475dd37f"><path d="M 161.898438 90.808594 L 176.71875 75.988281 L 214.832031 114.097656 L 200.007812 128.917969 Z M 161.898438 90.808594 " clip-rule="nonzero"/></clipPath><clipPath id="3ffd0e946b"><path d="M 161.898438 90.808594 L 176.71875 75.988281 L 214.832031 114.097656 L 200.007812 128.917969 Z M 161.898438 90.808594 " clip-rule="nonzero"/></clipPath><clipPath id="3c6e8a6199"><path d="M 161.925781 90.835938 L 176.746094 76.015625 L 214.800781 114.070312 L 199.980469 128.890625 Z M 161.925781 90.835938 " clip-rule="nonzero"/></clipPath><clipPath id="ac0495e9a2"><path d="M 173 87 L 185 87 L 185 99 L 173 99 Z M 173 87 " clip-rule="nonzero"/></clipPath><clipPath id="f60f853e7c"><path d="M 161.898438 90.808594 L 176.71875 75.988281 L 214.832031 114.097656 L 200.007812 128.917969 Z M 161.898438 90.808594 " clip-rule="nonzero"/></clipPath><clipPath id="5944ad37be"><path d="M 161.898438 90.808594 L 176.71875 75.988281 L 214.832031 114.097656 L 200.007812 128.917969 Z M 161.898438 90.808594 " clip-rule="nonzero"/></clipPath><clipPath id="a1943daa84"><path d="M 161.898438 90.808594 L 176.71875 75.988281 L 214.832031 114.097656 L 200.007812 128.917969 Z M 161.898438 90.808594 " clip-rule="nonzero"/></clipPath><clipPath id="d9e4f6ba25"><path d="M 161.925781 90.835938 L 176.746094 76.015625 L 214.800781 114.070312 L 199.980469 128.890625 Z M 161.925781 90.835938 " clip-rule="nonzero"/></clipPath><clipPath id="a32aa3882a"><path d="M 175 89 L 187 89 L 187 101 L 175 101 Z M 175 89 " clip-rule="nonzero"/></clipPath><clipPath id="7c075122a4"><path d="M 161.898438 90.808594 L 176.71875 75.988281 L 214.832031 114.097656 L 200.007812 128.917969 Z M 161.898438 90.808594 " clip-rule="nonzero"/></clipPath><clipPath id="4a3e089b1f"><path d="M 161.898438 90.808594 L 176.71875 75.988281 L 214.832031 114.097656 L 200.007812 128.917969 Z M 161.898438 90.808594 " clip-rule="nonzero"/></clipPath><clipPath id="3c6b350a3a"><path d="M 161.898438 90.808594 L 176.71875 75.988281 L 214.832031 114.097656 L 200.007812 128.917969 Z M 161.898438 90.808594 " clip-rule="nonzero"/></clipPath><clipPath id="15b0bcbf78"><path d="M 161.925781 90.835938 L 176.746094 76.015625 L 214.800781 114.070312 L 199.980469 128.890625 Z M 161.925781 90.835938 " clip-rule="nonzero"/></clipPath><clipPath id="d4e71829c1"><path d="M 176 90 L 189 90 L 189 103 L 176 103 Z M 176 90 " clip-rule="nonzero"/></clipPath><clipPath id="87c7c4bf7c"><path d="M 161.898438 90.808594 L 176.71875 75.988281 L 214.832031 114.097656 L 200.007812 128.917969 Z M 161.898438 90.808594 " clip-rule="nonzero"/></clipPath><clipPath id="e87c442caf"><path d="M 161.898438 90.808594 L 176.71875 75.988281 L 214.832031 114.097656 L 200.007812 128.917969 Z M 161.898438 90.808594 " clip-rule="nonzero"/></clipPath><clipPath id="5a6ff4b063"><path d="M 161.898438 90.808594 L 176.71875 75.988281 L 214.832031 114.097656 L 200.007812 128.917969 Z M 161.898438 90.808594 " clip-rule="nonzero"/></clipPath><clipPath id="57691d8604"><path d="M 161.925781 90.835938 L 176.746094 76.015625 L 214.800781 114.070312 L 199.980469 128.890625 Z M 161.925781 90.835938 " clip-rule="nonzero"/></clipPath><clipPath id="9f373836cd"><path d="M 178 92 L 191 92 L 191 105 L 178 105 Z M 178 92 " clip-rule="nonzero"/></clipPath><clipPath id="2fefc0c421"><path d="M 161.898438 90.808594 L 176.71875 75.988281 L 214.832031 114.097656 L 200.007812 128.917969 Z M 161.898438 90.808594 " clip-rule="nonzero"/></clipPath><clipPath id="59b17dbfa5"><path d="M 161.898438 90.808594 L 176.71875 75.988281 L 214.832031 114.097656 L 200.007812 128.917969 Z M 161.898438 90.808594 " clip-rule="nonzero"/></clipPath><clipPath id="83abc586e8"><path d="M 161.898438 90.808594 L 176.71875 75.988281 L 214.832031 114.097656 L 200.007812 128.917969 Z M 161.898438 90.808594 " clip-rule="nonzero"/></clipPath><clipPath id="e4c48acaab"><path d="M 161.925781 90.835938 L 176.746094 76.015625 L 214.800781 114.070312 L 199.980469 128.890625 Z M 161.925781 90.835938 " clip-rule="nonzero"/></clipPath><clipPath id="42133b7bd8"><path d="M 180 94 L 193 94 L 193 107 L 180 107 Z M 180 94 " clip-rule="nonzero"/></clipPath><clipPath id="b4d22f14a2"><path d="M 161.898438 90.808594 L 176.71875 75.988281 L 214.832031 114.097656 L 200.007812 128.917969 Z M 161.898438 90.808594 " clip-rule="nonzero"/></clipPath><clipPath id="386ffe6e32"><path d="M 161.898438 90.808594 L 176.71875 75.988281 L 214.832031 114.097656 L 200.007812 128.917969 Z M 161.898438 90.808594 " clip-rule="nonzero"/></clipPath><clipPath id="14dad2d219"><path d="M 161.898438 90.808594 L 176.71875 75.988281 L 214.832031 114.097656 L 200.007812 128.917969 Z M 161.898438 90.808594 " clip-rule="nonzero"/></clipPath><clipPath id="e744b54459"><path d="M 161.925781 90.835938 L 176.746094 76.015625 L 214.800781 114.070312 L 199.980469 128.890625 Z M 161.925781 90.835938 " clip-rule="nonzero"/></clipPath><clipPath id="46ed51fce9"><path d="M 182 96 L 194 96 L 194 109 L 182 109 Z M 182 96 " clip-rule="nonzero"/></clipPath><clipPath id="da03c2ca47"><path d="M 161.898438 90.808594 L 176.71875 75.988281 L 214.832031 114.097656 L 200.007812 128.917969 Z M 161.898438 90.808594 " clip-rule="nonzero"/></clipPath><clipPath id="efa19f7acb"><path d="M 161.898438 90.808594 L 176.71875 75.988281 L 214.832031 114.097656 L 200.007812 128.917969 Z M 161.898438 90.808594 " clip-rule="nonzero"/></clipPath><clipPath id="742b5dddcb"><path d="M 161.898438 90.808594 L 176.71875 75.988281 L 214.832031 114.097656 L 200.007812 128.917969 Z M 161.898438 90.808594 " clip-rule="nonzero"/></clipPath><clipPath id="dbe7690793"><path d="M 161.925781 90.835938 L 176.746094 76.015625 L 214.800781 114.070312 L 199.980469 128.890625 Z M 161.925781 90.835938 " clip-rule="nonzero"/></clipPath><clipPath id="7c370c718f"><path d="M 184 98 L 196 98 L 196 111 L 184 111 Z M 184 98 " clip-rule="nonzero"/></clipPath><clipPath id="09862c4095"><path d="M 161.898438 90.808594 L 176.71875 75.988281 L 214.832031 114.097656 L 200.007812 128.917969 Z M 161.898438 90.808594 " clip-rule="nonzero"/></clipPath><clipPath id="aa71bada64"><path d="M 161.898438 90.808594 L 176.71875 75.988281 L 214.832031 114.097656 L 200.007812 128.917969 Z M 161.898438 90.808594 " clip-rule="nonzero"/></clipPath><clipPath id="06188e118e"><path d="M 161.898438 90.808594 L 176.71875 75.988281 L 214.832031 114.097656 L 200.007812 128.917969 Z M 161.898438 90.808594 " clip-rule="nonzero"/></clipPath><clipPath id="38ffad754c"><path d="M 161.925781 90.835938 L 176.746094 76.015625 L 214.800781 114.070312 L 199.980469 128.890625 Z M 161.925781 90.835938 " clip-rule="nonzero"/></clipPath><clipPath id="32eb70e84a"><path d="M 186 100 L 198 100 L 198 113 L 186 113 Z M 186 100 " clip-rule="nonzero"/></clipPath><clipPath id="fbbb58000d"><path d="M 161.898438 90.808594 L 176.71875 75.988281 L 214.832031 114.097656 L 200.007812 128.917969 Z M 161.898438 90.808594 " clip-rule="nonzero"/></clipPath><clipPath id="9b39b9db54"><path d="M 161.898438 90.808594 L 176.71875 75.988281 L 214.832031 114.097656 L 200.007812 128.917969 Z M 161.898438 90.808594 " clip-rule="nonzero"/></clipPath><clipPath id="9f2743d13a"><path d="M 161.898438 90.808594 L 176.71875 75.988281 L 214.832031 114.097656 L 200.007812 128.917969 Z M 161.898438 90.808594 " clip-rule="nonzero"/></clipPath><clipPath id="a3e346677f"><path d="M 161.925781 90.835938 L 176.746094 76.015625 L 214.800781 114.070312 L 199.980469 128.890625 Z M 161.925781 90.835938 " clip-rule="nonzero"/></clipPath><clipPath id="6dac148e1f"><path d="M 188 102 L 200 102 L 200 114 L 188 114 Z M 188 102 " clip-rule="nonzero"/></clipPath><clipPath id="6da44985d2"><path d="M 161.898438 90.808594 L 176.71875 75.988281 L 214.832031 114.097656 L 200.007812 128.917969 Z M 161.898438 90.808594 " clip-rule="nonzero"/></clipPath><clipPath id="2743f91ad6"><path d="M 161.898438 90.808594 L 176.71875 75.988281 L 214.832031 114.097656 L 200.007812 128.917969 Z M 161.898438 90.808594 " clip-rule="nonzero"/></clipPath><clipPath id="72154bed7e"><path d="M 161.898438 90.808594 L 176.71875 75.988281 L 214.832031 114.097656 L 200.007812 128.917969 Z M 161.898438 90.808594 " clip-rule="nonzero"/></clipPath><clipPath id="f86d3b5712"><path d="M 161.925781 90.835938 L 176.746094 76.015625 L 214.800781 114.070312 L 199.980469 128.890625 Z M 161.925781 90.835938 " clip-rule="nonzero"/></clipPath><clipPath id="80f209c3cc"><path d="M 197 111 L 209 111 L 209 124 L 197 124 Z M 197 111 " clip-rule="nonzero"/></clipPath><clipPath id="2c0c96ddde"><path d="M 161.898438 90.808594 L 176.71875 75.988281 L 214.832031 114.097656 L 200.007812 128.917969 Z M 161.898438 90.808594 " clip-rule="nonzero"/></clipPath><clipPath id="4e7dd00bdd"><path d="M 161.898438 90.808594 L 176.71875 75.988281 L 214.832031 114.097656 L 200.007812 128.917969 Z M 161.898438 90.808594 " clip-rule="nonzero"/></clipPath><clipPath id="5ac3f43a5c"><path d="M 161.898438 90.808594 L 176.71875 75.988281 L 214.832031 114.097656 L 200.007812 128.917969 Z M 161.898438 90.808594 " clip-rule="nonzero"/></clipPath><clipPath id="6289f21214"><path d="M 161.925781 90.835938 L 176.746094 76.015625 L 214.800781 114.070312 L 199.980469 128.890625 Z M 161.925781 90.835938 " clip-rule="nonzero"/></clipPath><clipPath id="956144cd29"><path d="M 192 106 L 204 106 L 204 118 L 192 118 Z M 192 106 " clip-rule="nonzero"/></clipPath><clipPath id="519beaf2e0"><path d="M 161.898438 90.808594 L 176.71875 75.988281 L 214.832031 114.097656 L 200.007812 128.917969 Z M 161.898438 90.808594 " clip-rule="nonzero"/></clipPath><clipPath id="494169795e"><path d="M 161.898438 90.808594 L 176.71875 75.988281 L 214.832031 114.097656 L 200.007812 128.917969 Z M 161.898438 90.808594 " clip-rule="nonzero"/></clipPath><clipPath id="026042deec"><path d="M 161.898438 90.808594 L 176.71875 75.988281 L 214.832031 114.097656 L 200.007812 128.917969 Z M 161.898438 90.808594 " clip-rule="nonzero"/></clipPath><clipPath id="847b112f12"><path d="M 161.925781 90.835938 L 176.746094 76.015625 L 214.800781 114.070312 L 199.980469 128.890625 Z M 161.925781 90.835938 " clip-rule="nonzero"/></clipPath><clipPath id="89b29444d6"><path d="M 193 107 L 206 107 L 206 120 L 193 120 Z M 193 107 " clip-rule="nonzero"/></clipPath><clipPath id="bb3dd14a20"><path d="M 161.898438 90.808594 L 176.71875 75.988281 L 214.832031 114.097656 L 200.007812 128.917969 Z M 161.898438 90.808594 " clip-rule="nonzero"/></clipPath><clipPath id="5fd0874281"><path d="M 161.898438 90.808594 L 176.71875 75.988281 L 214.832031 114.097656 L 200.007812 128.917969 Z M 161.898438 90.808594 " clip-rule="nonzero"/></clipPath><clipPath id="aa97a1b46b"><path d="M 161.898438 90.808594 L 176.71875 75.988281 L 214.832031 114.097656 L 200.007812 128.917969 Z M 161.898438 90.808594 " clip-rule="nonzero"/></clipPath><clipPath id="8ca6337b9a"><path d="M 161.925781 90.835938 L 176.746094 76.015625 L 214.800781 114.070312 L 199.980469 128.890625 Z M 161.925781 90.835938 " clip-rule="nonzero"/></clipPath><clipPath id="29f00deac8"><path d="M 195 109 L 208 109 L 208 122 L 195 122 Z M 195 109 " clip-rule="nonzero"/></clipPath><clipPath id="081b973623"><path d="M 161.898438 90.808594 L 176.71875 75.988281 L 214.832031 114.097656 L 200.007812 128.917969 Z M 161.898438 90.808594 " clip-rule="nonzero"/></clipPath><clipPath id="3f84e7636d"><path d="M 161.898438 90.808594 L 176.71875 75.988281 L 214.832031 114.097656 L 200.007812 128.917969 Z M 161.898438 90.808594 " clip-rule="nonzero"/></clipPath><clipPath id="6541d6ea34"><path d="M 161.898438 90.808594 L 176.71875 75.988281 L 214.832031 114.097656 L 200.007812 128.917969 Z M 161.898438 90.808594 " clip-rule="nonzero"/></clipPath><clipPath id="49296ab31b"><path d="M 161.925781 90.835938 L 176.746094 76.015625 L 214.800781 114.070312 L 199.980469 128.890625 Z M 161.925781 90.835938 " clip-rule="nonzero"/></clipPath></defs><g clip-path="url(#6e39621848)"><path fill="#000000" d="M 257.566406 0 L 234.707031 0 C 229.347656 0 225.0625 3.929688 225.0625 3.929688 L 114.691406 107.15625 L 137.550781 107.15625 C 143.265625 107.15625 147.195312 103.226562 147.195312 103.226562 L 161.839844 90.011719 L 196.128906 124.300781 C 196.128906 124.300781 200.414062 128.589844 206.488281 128.589844 L 228.992188 128.589844 L 176.484375 76.082031 Z M 257.566406 0 " fill-opacity="1" fill-rule="nonzero"/></g><g clip-path="url(#fb0fc0acf4)"><path fill="#e24d26" d="M 159.695312 59.292969 L 147.550781 47.148438 C 147.550781 47.148438 143.265625 42.863281 137.191406 42.863281 L 114.691406 42.863281 L 144.695312 72.867188 Z M 159.695312 59.292969 " fill-opacity="1" fill-rule="nonzero"/></g><g fill="#000000" fill-opacity="1"><g transform="translate(26.466621, 86.661858)"><g><path d="M 3.78125 0 L 3.78125 -38.859375 L 17.046875 -38.859375 C 21.597656 -38.859375 25.34375 -38.050781 28.28125 -36.4375 C 31.226562 -34.832031 33.410156 -32.578125 34.828125 -29.671875 C 36.253906 -26.765625 36.96875 -23.351562 36.96875 -19.4375 C 36.96875 -15.507812 36.253906 -12.09375 34.828125 -9.1875 C 33.410156 -6.28125 31.226562 -4.019531 28.28125 -2.40625 C 25.34375 -0.800781 21.597656 0 17.046875 0 Z M 10.875 -6.109375 L 16.703125 -6.109375 C 19.960938 -6.109375 22.535156 -6.632812 24.421875 -7.6875 C 26.316406 -8.738281 27.671875 -10.253906 28.484375 -12.234375 C 29.296875 -14.222656 29.703125 -16.625 29.703125 -19.4375 C 29.703125 -22.207031 29.296875 -24.59375 28.484375 -26.59375 C 27.671875 -28.59375 26.316406 -30.128906 24.421875 -31.203125 C 22.535156 -32.273438 19.960938 -32.8125 16.703125 -32.8125 L 10.875 -32.8125 Z M 10.875 -6.109375 "/></g></g></g><g fill="#000000" fill-opacity="1"><g transform="translate(64.823977, 86.661858)"><g><path d="M 16.828125 0.671875 C 14.160156 0.671875 11.757812 0.0625 9.625 -1.15625 C 7.5 -2.382812 5.816406 -4.082031 4.578125 -6.25 C 3.335938 -8.414062 2.71875 -10.921875 2.71875 -13.765625 C 2.71875 -16.617188 3.347656 -19.125 4.609375 -21.28125 C 5.867188 -23.445312 7.5625 -25.140625 9.6875 -26.359375 C 11.8125 -27.585938 14.207031 -28.203125 16.875 -28.203125 C 19.5 -28.203125 21.875 -27.585938 24 -26.359375 C 26.132812 -25.140625 27.820312 -23.445312 29.0625 -21.28125 C 30.300781 -19.125 30.921875 -16.617188 30.921875 -13.765625 C 30.921875 -10.921875 30.300781 -8.414062 29.0625 -6.25 C 27.820312 -4.082031 26.128906 -2.382812 23.984375 -1.15625 C 21.835938 0.0625 19.453125 0.671875 16.828125 0.671875 Z M 16.828125 -5.5 C 18.671875 -5.5 20.273438 -6.191406 21.640625 -7.578125 C 23.015625 -8.960938 23.703125 -11.023438 23.703125 -13.765625 C 23.703125 -16.503906 23.015625 -18.566406 21.640625 -19.953125 C 20.273438 -21.347656 18.6875 -22.046875 16.875 -22.046875 C 14.988281 -22.046875 13.367188 -21.347656 12.015625 -19.953125 C 10.671875 -18.566406 10 -16.503906 10 -13.765625 C 10 -11.023438 10.671875 -8.960938 12.015625 -7.578125 C 13.367188 -6.191406 14.972656 -5.5 16.828125 -5.5 Z M 16.828125 -5.5 "/></g></g></g><g fill="#000000" fill-opacity="1"><g transform="translate(97.352758, 86.661858)"><g><path d="M 17.09375 0.671875 C 14.28125 0.671875 11.800781 0.0625 9.65625 -1.15625 C 7.507812 -2.382812 5.816406 -4.085938 4.578125 -6.265625 C 3.335938 -8.453125 2.71875 -10.953125 2.71875 -13.765625 C 2.71875 -16.578125 3.335938 -19.070312 4.578125 -21.25 C 5.816406 -23.4375 7.507812 -25.140625 9.65625 -26.359375 C 11.800781 -27.585938 14.28125 -28.203125 17.09375 -28.203125 C 20.613281 -28.203125 23.578125 -27.285156 25.984375 -25.453125 C 28.390625 -23.617188 29.925781 -21.09375 30.59375 -17.875 L 23.09375 -17.875 C 22.726562 -19.207031 22 -20.253906 20.90625 -21.015625 C 19.8125 -21.773438 18.523438 -22.15625 17.046875 -22.15625 C 15.078125 -22.15625 13.410156 -21.410156 12.046875 -19.921875 C 10.679688 -18.441406 10 -16.390625 10 -13.765625 C 10 -11.140625 10.679688 -9.085938 12.046875 -7.609375 C 13.410156 -6.128906 15.078125 -5.390625 17.046875 -5.390625 C 18.523438 -5.390625 19.8125 -5.757812 20.90625 -6.5 C 22 -7.238281 22.726562 -8.289062 23.09375 -9.65625 L 30.59375 -9.65625 C 29.925781 -6.550781 28.390625 -4.050781 25.984375 -2.15625 C 23.578125 -0.269531 20.613281 0.671875 17.09375 0.671875 Z M 17.09375 0.671875 "/></g></g></g><g fill="#000000" fill-opacity="1"><g transform="translate(209.315876, 86.661858)"><g><path d="M 3.78125 0 L 3.78125 -38.859375 L 10.875 -38.859375 L 29.140625 -11.484375 L 29.140625 -38.859375 L 36.25 -38.859375 L 36.25 0 L 29.140625 0 L 10.875 -27.3125 L 10.875 0 Z M 3.78125 0 "/></g></g></g><g fill="#000000" fill-opacity="1"><g transform="translate(248.228334, 86.661858)"><g><path d="M 7.4375 -31.8125 C 6.144531 -31.8125 5.082031 -32.195312 4.25 -32.96875 C 3.414062 -33.75 3 -34.734375 3 -35.921875 C 3 -37.097656 3.414062 -38.066406 4.25 -38.828125 C 5.082031 -39.585938 6.144531 -39.96875 7.4375 -39.96875 C 8.726562 -39.96875 9.789062 -39.585938 10.625 -38.828125 C 11.457031 -38.066406 11.875 -37.097656 11.875 -35.921875 C 11.875 -34.734375 11.457031 -33.75 10.625 -32.96875 C 9.789062 -32.195312 8.726562 -31.8125 7.4375 -31.8125 Z M 3.890625 0 L 3.890625 -27.53125 L 10.984375 -27.53125 L 10.984375 0 Z M 3.890625 0 "/></g></g></g><g fill="#000000" fill-opacity="1"><g transform="translate(261.93914, 86.661858)"><g><path d="M 3.609375 0 L 3.609375 -27.53125 L 9.875 -27.53125 L 10.4375 -22.875 C 11.289062 -24.5 12.519531 -25.789062 14.125 -26.75 C 15.738281 -27.71875 17.632812 -28.203125 19.8125 -28.203125 C 23.21875 -28.203125 25.863281 -27.128906 27.75 -24.984375 C 29.644531 -22.835938 30.59375 -19.691406 30.59375 -15.546875 L 30.59375 0 L 23.484375 0 L 23.484375 -14.875 C 23.484375 -17.25 23 -19.0625 22.03125 -20.3125 C 21.070312 -21.570312 19.578125 -22.203125 17.546875 -22.203125 C 15.546875 -22.203125 13.90625 -21.5 12.625 -20.09375 C 11.351562 -18.6875 10.71875 -16.726562 10.71875 -14.21875 L 10.71875 0 Z M 3.609375 0 "/></g></g></g><g fill="#000000" fill-opacity="1"><g transform="translate(294.578944, 86.661858)"><g><path d="M 7.546875 -31.8125 C 6.253906 -31.8125 5.191406 -32.195312 4.359375 -32.96875 C 3.523438 -33.75 3.109375 -34.734375 3.109375 -35.921875 C 3.109375 -37.097656 3.523438 -38.066406 4.359375 -38.828125 C 5.191406 -39.585938 6.253906 -39.96875 7.546875 -39.96875 C 8.847656 -39.96875 9.910156 -39.585938 10.734375 -38.828125 C 11.566406 -38.066406 11.984375 -37.097656 11.984375 -35.921875 C 11.984375 -34.734375 11.566406 -33.75 10.734375 -32.96875 C 9.910156 -32.195312 8.847656 -31.8125 7.546875 -31.8125 Z M -1.609375 12.21875 L -1.609375 6.15625 L 0.5625 6.15625 C 1.78125 6.15625 2.644531 5.914062 3.15625 5.4375 C 3.675781 4.957031 3.9375 4.144531 3.9375 3 L 3.9375 -27.53125 L 11.046875 -27.53125 L 11.046875 3 C 11.046875 6.332031 10.203125 8.703125 8.515625 10.109375 C 6.835938 11.515625 4.554688 12.21875 1.671875 12.21875 Z M -1.609375 12.21875 "/></g></g></g><g fill="#000000" fill-opacity="1"><g transform="translate(308.345262, 86.661858)"><g><path d="M 13.109375 0.671875 C 10.734375 0.671875 8.785156 0.289062 7.265625 -0.46875 C 5.753906 -1.226562 4.628906 -2.238281 3.890625 -3.5 C 3.148438 -4.757812 2.78125 -6.144531 2.78125 -7.65625 C 2.78125 -10.207031 3.773438 -12.28125 5.765625 -13.875 C 7.765625 -15.46875 10.765625 -16.265625 14.765625 -16.265625 L 21.765625 -16.265625 L 21.765625 -16.9375 C 21.765625 -18.820312 21.226562 -20.207031 20.15625 -21.09375 C 19.082031 -21.976562 17.75 -22.421875 16.15625 -22.421875 C 14.707031 -22.421875 13.445312 -22.078125 12.375 -21.390625 C 11.300781 -20.710938 10.632812 -19.707031 10.375 -18.375 L 3.4375 -18.375 C 3.625 -20.375 4.300781 -22.113281 5.46875 -23.59375 C 6.632812 -25.070312 8.140625 -26.207031 9.984375 -27 C 11.835938 -27.800781 13.910156 -28.203125 16.203125 -28.203125 C 20.128906 -28.203125 23.222656 -27.21875 25.484375 -25.25 C 27.742188 -23.289062 28.875 -20.519531 28.875 -16.9375 L 28.875 0 L 22.8125 0 L 22.15625 -4.4375 C 21.332031 -2.957031 20.191406 -1.734375 18.734375 -0.765625 C 17.273438 0.191406 15.398438 0.671875 13.109375 0.671875 Z M 14.71875 -4.890625 C 16.75 -4.890625 18.328125 -5.550781 19.453125 -6.875 C 20.585938 -8.207031 21.300781 -9.859375 21.59375 -11.828125 L 15.546875 -11.828125 C 13.660156 -11.828125 12.304688 -11.484375 11.484375 -10.796875 C 10.671875 -10.109375 10.265625 -9.265625 10.265625 -8.265625 C 10.265625 -7.191406 10.671875 -6.359375 11.484375 -5.765625 C 12.304688 -5.179688 13.382812 -4.890625 14.71875 -4.890625 Z M 14.71875 -4.890625 "/></g></g></g><g clip-path="url(#5973e76f60)"><g clip-path="url(#1132c613f4)"><g clip-path="url(#a0cdf6bde9)"><path fill="#ffffff" d="M 236.796875 1.628906 C 236.441406 1.957031 237.996094 0.503906 237.667969 0.851562 C 228.769531 9.867188 222.707031 15.742188 213.785156 24.753906 C 213.527344 25.027344 213.21875 25.28125 213.007812 25.503906 C 212.8125 25.414062 212.765625 25.414062 212.738281 25.390625 C 211.664062 24.289062 208.839844 21.347656 207.765625 20.242188 C 207.464844 19.9375 207.066406 19.585938 206.605469 19.601562 C 206.050781 19.617188 206.414062 20.429688 206.472656 20.71875 L 206.808594 22.210938 C 206.890625 22.59375 206.976562 23.003906 207.085938 23.386719 C 207.195312 23.769531 209.21875 25.765625 209.46875 26.023438 C 209.46875 26.023438 211.089844 27.695312 211.089844 27.695312 C 210.082031 28.742188 209.050781 29.765625 208.039062 30.8125 C 208.027344 31.175781 208.0625 31.539062 208.148438 31.898438 C 208.289062 32.546875 208.457031 33.316406 208.90625 33.8125 C 209.382812 34.332031 210.113281 34.40625 210.765625 34.457031 C 211.226562 34.492188 211.710938 34.5 212.175781 34.582031 C 212.714844 34.035156 213.277344 33.460938 213.839844 32.886719 C 214.195312 32.535156 214.570312 32.1875 214.898438 31.886719 C 215.097656 31.953125 215.167969 31.972656 215.21875 32.019531 C 215.945312 32.773438 216.667969 33.5 217.394531 34.253906 L 217.394531 34.300781 C 217.820312 34.722656 218.152344 35.269531 218.730469 35.253906 C 219.382812 35.234375 220.082031 35.066406 220.703125 34.878906 C 221.066406 34.769531 221.089844 34.792969 221.054688 34.40625 C 221.015625 34.019531 220.769531 33.859375 220.59375 33.648438 C 219.46875 32.421875 218.316406 31.246094 217.117188 29.976562 C 217.492188 29.578125 217.726562 29.304688 217.984375 29.03125 C 227.257812 19.644531 231.789062 15.195312 241.0625 5.808594 C 242.519531 4.335938 242.570312 2.855469 241.195312 1.472656 C 239.824219 0.109375 238.324219 0.132812 236.84375 1.605469 Z M 240.945312 5.085938 C 239.890625 6.207031 240.617188 5.433594 239.277344 6.734375 C 239.167969 4.730469 238.164062 3.621094 235.90625 3.449219 C 237.410156 2 236.679688 2.53125 238.023438 1.472656 C 238.898438 0.792969 240.074219 1.238281 240.929688 2.253906 C 241.660156 3.128906 241.742188 4.238281 240.96875 5.0625 Z M 210.074219 35.542969 C 209.222656 35.425781 208.4375 35.109375 207.910156 34.398438 C 207.402344 33.714844 207.160156 32.824219 206.988281 31.984375 C 206.984375 31.933594 206.984375 31.910156 206.984375 31.863281 C 180.222656 58.976562 159.753906 77.324219 131.261719 102.457031 C 131.457031 102.523438 131.601562 102.519531 131.71875 102.46875 C 135.621094 101.015625 139.523438 99.5625 143.421875 98.089844 C 143.828125 97.929688 144.207031 97.675781 144.539062 97.375 C 153.164062 89.824219 154.246094 89.597656 162.773438 81.953125 C 179.429688 67.058594 195.460938 51.484375 211.164062 35.605469 C 210.800781 35.570312 210.460938 35.554688 210.097656 35.519531 Z M 210.074219 35.542969 " fill-opacity="1" fill-rule="nonzero"/></g></g></g><g clip-path="url(#acb35f3936)"><g clip-path="url(#702805769c)"><g clip-path="url(#0140e8cc6b)"><path fill="#e24d26" d="M 215.507812 24.144531 L 216.335938 26.589844 L 218.828125 27.382812 L 217.976562 24.941406 Z M 215.507812 24.144531 " fill-opacity="1" fill-rule="nonzero"/></g></g></g><g clip-path="url(#199fb3eb9c)"><g clip-path="url(#88bac49ace)"><g clip-path="url(#cb5b783829)"><path fill="#e24d26" d="M 224.957031 14.195312 L 225.785156 16.640625 L 228.277344 17.433594 L 227.449219 14.964844 Z M 224.957031 14.195312 " fill-opacity="1" fill-rule="nonzero"/></g></g></g><g clip-path="url(#3bd119012e)"><g clip-path="url(#dd661dd07a)"><g clip-path="url(#c909f15792)"><path fill="#e24d26" d="M 227.449219 11.820312 L 228.277344 14.261719 L 230.769531 15.058594 L 229.917969 12.589844 Z M 227.449219 11.820312 " fill-opacity="1" fill-rule="nonzero"/></g></g></g><g clip-path="url(#7e6da9200f)"><g clip-path="url(#5c1b127f83)"><g clip-path="url(#37e9b8e662)"><path fill="#e24d26" d="M 229.917969 9.441406 L 230.746094 11.886719 L 233.238281 12.679688 L 232.414062 10.238281 Z M 229.917969 9.441406 " fill-opacity="1" fill-rule="nonzero"/></g></g></g><g clip-path="url(#d57cc9a54b)"><g clip-path="url(#e2e07205b1)"><g clip-path="url(#3a2f00f73c)"><path fill="#e24d26" d="M 232.410156 7.066406 L 233.238281 9.511719 L 235.730469 10.304688 L 234.882812 7.863281 Z M 232.410156 7.066406 " fill-opacity="1" fill-rule="nonzero"/></g></g></g><g clip-path="url(#f8e64155ab)"><g clip-path="url(#3ec529a5df)"><g clip-path="url(#310ac3b502)"><path fill="#e24d26" d="M 234.882812 4.714844 L 235.707031 7.136719 L 238.199219 7.953125 L 237.375 5.484375 Z M 234.882812 4.714844 " fill-opacity="1" fill-rule="nonzero"/></g></g></g><g clip-path="url(#03564ebccb)"><g clip-path="url(#3a8e898226)"><g clip-path="url(#f89632d439)"><path fill="#e24d26" d="M 217.753906 21.535156 L 218.578125 23.976562 L 221.070312 24.773438 L 220.222656 22.328125 Z M 217.753906 21.535156 " fill-opacity="1" fill-rule="nonzero"/></g></g></g><g clip-path="url(#f1d1d03e60)"><g clip-path="url(#9568f0a540)"><g clip-path="url(#dcfcd80aed)"><path fill="#e24d26" d="M 220.171875 19.085938 L 220.972656 21.53125 L 223.464844 22.328125 L 222.640625 19.859375 Z M 220.171875 19.085938 " fill-opacity="1" fill-rule="nonzero"/></g></g></g><g clip-path="url(#77d93c9bca)"><g clip-path="url(#f6ef2bdb2c)"><g clip-path="url(#2e036e2b13)"><path fill="#e24d26" d="M 222.5625 16.640625 L 223.390625 19.085938 L 225.882812 19.878906 L 225.03125 17.414062 Z M 222.5625 16.640625 " fill-opacity="1" fill-rule="nonzero"/></g></g></g><g clip-path="url(#065432da29)"><g clip-path="url(#1573c534e4)"><g clip-path="url(#f5009b0069)"><path fill="#e24d26" d="M 212.097656 30.445312 C 213.152344 31.695312 214.5625 31.894531 214.878906 31.933594 C 214.546875 32.234375 214.195312 32.585938 213.820312 32.933594 C 213.277344 33.484375 212.714844 34.058594 212.152344 34.632812 C 211.691406 34.550781 211.230469 34.539062 210.746094 34.507812 C 210.089844 34.476562 209.335938 34.378906 208.886719 33.863281 C 208.433594 33.367188 208.265625 32.597656 208.125 31.949219 C 208.039062 31.589844 208.003906 31.203125 208.019531 30.863281 C 209.027344 29.839844 210.058594 28.789062 211.070312 27.742188 C 211.078125 28.082031 211.117188 29.339844 212.074219 30.472656 Z M 212.097656 30.445312 " fill-opacity="1" fill-rule="nonzero"/></g></g></g><g clip-path="url(#be96afc1f2)"><g clip-path="url(#5c14d515bf)"><g clip-path="url(#3f2deb0555)"><path fill="#f3c257" d="M 235.070312 6.863281 C 235.070312 6.914062 235.039062 6.9375 234.972656 6.941406 C 234.910156 6.941406 234.875 6.917969 234.875 6.871094 C 234.875 6.820312 234.90625 6.796875 234.96875 6.792969 C 235.035156 6.792969 235.066406 6.816406 235.070312 6.863281 Z M 235.070312 6.863281 " fill-opacity="1" fill-rule="nonzero"/></g></g></g><g clip-path="url(#4089634710)"><g clip-path="url(#1dd4846f3e)"><g clip-path="url(#a0bf28433b)"><path fill="#f3c257" d="M 231.625 11.375 C 231.625 11.425781 231.59375 11.449219 231.53125 11.453125 C 231.464844 11.453125 231.433594 11.429688 231.429688 11.382812 C 231.429688 11.332031 231.460938 11.308594 231.527344 11.304688 C 231.589844 11.304688 231.625 11.328125 231.625 11.375 Z M 231.625 11.375 " fill-opacity="1" fill-rule="nonzero"/></g></g></g><g clip-path="url(#d78673d08c)"><g clip-path="url(#5ce8553e81)"><g clip-path="url(#b348d94ca9)"><path fill="#f3c257" d="M 228.089844 16.011719 C 228.089844 16.058594 228.058594 16.085938 227.992188 16.085938 C 227.929688 16.089844 227.894531 16.066406 227.894531 16.015625 C 227.894531 15.96875 227.925781 15.945312 227.988281 15.941406 C 228.054688 15.941406 228.085938 15.960938 228.089844 16.011719 Z M 228.089844 16.011719 " fill-opacity="1" fill-rule="nonzero"/></g></g></g><g clip-path="url(#36b4aa0929)"><g clip-path="url(#426880e336)"><g clip-path="url(#4fc2569c4f)"><path fill="#f3c257" d="M 225.902344 18.984375 C 225.90625 19.03125 225.875 19.058594 225.808594 19.058594 C 225.746094 19.0625 225.710938 19.039062 225.710938 18.988281 C 225.710938 18.941406 225.742188 18.914062 225.804688 18.914062 C 225.871094 18.910156 225.902344 18.933594 225.902344 18.984375 Z M 225.902344 18.984375 " fill-opacity="1" fill-rule="nonzero"/></g></g></g><g clip-path="url(#497ef08aea)"><g clip-path="url(#e79ea218cc)"><g clip-path="url(#efc0156b2f)"><path fill="#f3c257" d="M 221.984375 22.226562 C 221.988281 22.273438 221.957031 22.300781 221.890625 22.300781 C 221.828125 22.304688 221.792969 22.28125 221.792969 22.234375 C 221.789062 22.183594 221.824219 22.160156 221.886719 22.15625 C 221.953125 22.15625 221.984375 22.179688 221.984375 22.226562 Z M 221.984375 22.226562 " fill-opacity="1" fill-rule="nonzero"/></g></g></g><g clip-path="url(#10ed9d506f)"><g clip-path="url(#c66c0c3152)"><g clip-path="url(#f393b7cc2d)"><path fill="#f3c257" d="M 217.253906 25.738281 C 217.253906 25.785156 217.222656 25.808594 217.15625 25.8125 C 217.09375 25.816406 217.058594 25.792969 217.058594 25.742188 C 217.058594 25.695312 217.089844 25.667969 217.152344 25.667969 C 217.21875 25.664062 217.25 25.6875 217.253906 25.738281 Z M 217.253906 25.738281 " fill-opacity="1" fill-rule="nonzero"/></g></g></g><g clip-path="url(#a49586ea6f)"><g clip-path="url(#5cb6f4ff46)"><g clip-path="url(#66c66a1864)"><path fill="#f3c257" d="M 212.609375 29.003906 C 212.609375 29.050781 212.578125 29.074219 212.515625 29.078125 C 212.449219 29.082031 212.417969 29.058594 212.414062 29.007812 C 212.414062 28.960938 212.445312 28.933594 212.507812 28.933594 C 212.574219 28.929688 212.605469 28.953125 212.609375 29.003906 Z M 212.609375 29.003906 " fill-opacity="1" fill-rule="nonzero"/></g></g></g><g clip-path="url(#5b09ed090e)"><g clip-path="url(#79a4bcc336)"><g clip-path="url(#0ab3bc0e6d)"><path fill="#f3c257" d="M 207.289062 33.136719 C 207.289062 33.183594 207.257812 33.210938 207.195312 33.210938 C 207.128906 33.214844 207.097656 33.191406 207.097656 33.140625 C 207.09375 33.09375 207.125 33.070312 207.191406 33.066406 C 207.253906 33.066406 207.289062 33.089844 207.289062 33.136719 Z M 207.289062 33.136719 " fill-opacity="1" fill-rule="nonzero"/></g></g></g><g clip-path="url(#7447cda872)"><g clip-path="url(#da4a39d5a1)"><g clip-path="url(#1c13bf3629)"><path fill="#f3c257" d="M 205.976562 33.78125 C 205.980469 33.832031 205.949219 33.855469 205.882812 33.855469 C 205.820312 33.859375 205.785156 33.835938 205.785156 33.789062 C 205.78125 33.738281 205.8125 33.714844 205.878906 33.710938 C 205.941406 33.710938 205.976562 33.734375 205.976562 33.78125 Z M 205.976562 33.78125 " fill-opacity="1" fill-rule="nonzero"/></g></g></g><g clip-path="url(#3ed90ebd4f)"><g clip-path="url(#71b68ac780)"><g clip-path="url(#74862fede1)"><path fill="#f3c257" d="M 209.332031 30.242188 C 209.332031 30.289062 209.300781 30.316406 209.234375 30.316406 C 209.171875 30.320312 209.136719 30.296875 209.136719 30.246094 C 209.136719 30.199219 209.167969 30.171875 209.230469 30.171875 C 209.296875 30.167969 209.328125 30.191406 209.332031 30.242188 Z M 209.332031 30.242188 " fill-opacity="1" fill-rule="nonzero"/></g></g></g><g clip-path="url(#77a0481a65)"><g clip-path="url(#3b2989e8fa)"><g clip-path="url(#25b4523e74)"><path fill="#f3c257" d="M 218.644531 19.0625 C 218.644531 19.109375 218.613281 19.136719 218.550781 19.136719 C 218.484375 19.140625 218.453125 19.117188 218.453125 19.066406 C 218.449219 19.019531 218.480469 18.992188 218.546875 18.992188 C 218.609375 18.988281 218.644531 19.011719 218.644531 19.0625 Z M 218.644531 19.0625 " fill-opacity="1" fill-rule="nonzero"/></g></g></g><g clip-path="url(#4c8e0401f3)"><g clip-path="url(#04951f1fae)"><g clip-path="url(#3466edfccf)"><path fill="#f3c257" d="M 221.683594 15.507812 C 221.683594 15.554688 221.652344 15.578125 221.585938 15.582031 C 221.523438 15.582031 221.488281 15.5625 221.488281 15.511719 C 221.488281 15.464844 221.519531 15.4375 221.582031 15.4375 C 221.648438 15.433594 221.679688 15.457031 221.683594 15.507812 Z M 221.683594 15.507812 " fill-opacity="1" fill-rule="nonzero"/></g></g></g><g clip-path="url(#4d88243360)"><g clip-path="url(#6f1ec9d8c7)"><g clip-path="url(#250343ca20)"><path fill="#f3c257" d="M 228.328125 10.484375 C 228.332031 10.53125 228.300781 10.558594 228.234375 10.558594 C 228.171875 10.5625 228.136719 10.539062 228.136719 10.492188 C 228.132812 10.441406 228.167969 10.417969 228.230469 10.414062 C 228.296875 10.414062 228.328125 10.4375 228.328125 10.484375 Z M 228.328125 10.484375 " fill-opacity="1" fill-rule="nonzero"/></g></g></g><g clip-path="url(#a436523284)"><g clip-path="url(#39fb36a55b)"><g clip-path="url(#d55ae687b3)"><path fill="#f3c257" d="M 233.339844 6.503906 C 233.339844 6.554688 233.308594 6.578125 233.246094 6.582031 C 233.179688 6.582031 233.148438 6.558594 233.144531 6.511719 C 233.144531 6.464844 233.175781 6.4375 233.238281 6.4375 C 233.304688 6.433594 233.335938 6.457031 233.339844 6.503906 Z M 233.339844 6.503906 " fill-opacity="1" fill-rule="nonzero"/></g></g></g><g clip-path="url(#e5c7c2c4c1)"><g clip-path="url(#980c3596bb)"><g clip-path="url(#eba0996b46)"><path fill="#f3c257" d="M 238.519531 3.34375 C 238.519531 3.394531 238.488281 3.417969 238.425781 3.421875 C 238.359375 3.421875 238.328125 3.398438 238.324219 3.351562 C 238.324219 3.300781 238.355469 3.277344 238.417969 3.273438 C 238.484375 3.273438 238.515625 3.296875 238.519531 3.34375 Z M 238.519531 3.34375 " fill-opacity="1" fill-rule="nonzero"/></g></g></g><g clip-path="url(#7a2861ffda)"><g clip-path="url(#329861c8f7)"><g clip-path="url(#9f5865ab72)"><path fill="#f3c257" d="M 241.101562 1.523438 C 241.101562 1.570312 241.070312 1.597656 241.007812 1.597656 C 240.941406 1.601562 240.910156 1.578125 240.90625 1.527344 C 240.90625 1.480469 240.9375 1.453125 241.003906 1.453125 C 241.066406 1.449219 241.097656 1.472656 241.101562 1.523438 Z M 241.101562 1.523438 " fill-opacity="1" fill-rule="nonzero"/></g></g></g><g clip-path="url(#79dd04edb6)"><g clip-path="url(#1d4b9b1177)"><g clip-path="url(#fda798df5a)"><path fill="#f3c257" d="M 233.8125 8.5 C 233.8125 8.546875 233.78125 8.574219 233.71875 8.574219 C 233.652344 8.578125 233.621094 8.554688 233.617188 8.507812 C 233.617188 8.457031 233.648438 8.433594 233.710938 8.429688 C 233.777344 8.429688 233.808594 8.453125 233.8125 8.5 Z M 233.8125 8.5 " fill-opacity="1" fill-rule="nonzero"/></g></g></g><g clip-path="url(#52ffd9398c)"><g clip-path="url(#6b8ae54785)"><g clip-path="url(#f436f339d5)"><path fill="#f3c257" d="M 210.699219 28.335938 C 210.703125 28.382812 210.667969 28.410156 210.605469 28.410156 C 210.539062 28.414062 210.507812 28.390625 210.507812 28.339844 C 210.503906 28.292969 210.535156 28.269531 210.601562 28.265625 C 210.664062 28.261719 210.699219 28.285156 210.699219 28.335938 Z M 210.699219 28.335938 " fill-opacity="1" fill-rule="nonzero"/></g></g></g><g clip-path="url(#34caecaed8)"><g clip-path="url(#ddde3a774d)"><g clip-path="url(#9ac196280d)"><path fill="#f3c257" d="M 204.28125 35.3125 C 204.285156 35.359375 204.253906 35.382812 204.1875 35.386719 C 204.121094 35.386719 204.089844 35.363281 204.089844 35.316406 C 204.085938 35.269531 204.117188 35.242188 204.183594 35.242188 C 204.246094 35.238281 204.28125 35.261719 204.28125 35.3125 Z M 204.28125 35.3125 " fill-opacity="1" fill-rule="nonzero"/></g></g></g><g clip-path="url(#7ccf245090)"><g clip-path="url(#2f47978e38)"><g clip-path="url(#33e5c9f735)"><path fill="#f3c257" d="M 200.335938 40.757812 C 200.335938 40.804688 200.304688 40.832031 200.238281 40.832031 C 200.175781 40.835938 200.140625 40.8125 200.140625 40.761719 C 200.140625 40.714844 200.171875 40.691406 200.234375 40.6875 C 200.300781 40.6875 200.332031 40.710938 200.335938 40.757812 Z M 200.335938 40.757812 " fill-opacity="1" fill-rule="nonzero"/></g></g></g><g clip-path="url(#a7c4488f69)"><g clip-path="url(#9a1f833415)"><g clip-path="url(#8d1a642060)"><path fill="#f3c257" d="M 194.402344 44.644531 C 194.402344 44.691406 194.371094 44.71875 194.308594 44.71875 C 194.242188 44.722656 194.210938 44.699219 194.210938 44.648438 C 194.207031 44.601562 194.238281 44.578125 194.304688 44.574219 C 194.367188 44.574219 194.402344 44.59375 194.402344 44.644531 Z M 194.402344 44.644531 " fill-opacity="1" fill-rule="nonzero"/></g></g></g><g clip-path="url(#779cb326a6)"><g clip-path="url(#ad8bb8ed0b)"><g clip-path="url(#c3053f5598)"><path fill="#f3c257" d="M 186.878906 51.023438 C 186.878906 51.074219 186.847656 51.097656 186.78125 51.097656 C 186.71875 51.101562 186.683594 51.078125 186.683594 51.03125 C 186.683594 50.980469 186.714844 50.957031 186.777344 50.953125 C 186.84375 50.953125 186.875 50.976562 186.878906 51.023438 Z M 186.878906 51.023438 " fill-opacity="1" fill-rule="nonzero"/></g></g></g><g clip-path="url(#77d626f09b)"><g clip-path="url(#f57e482db1)"><g clip-path="url(#77c5150a3e)"><path fill="#f3c257" d="M 185.023438 53.769531 C 185.027344 53.816406 184.996094 53.839844 184.929688 53.84375 C 184.867188 53.84375 184.832031 53.824219 184.832031 53.773438 C 184.828125 53.726562 184.863281 53.699219 184.925781 53.699219 C 184.992188 53.695312 185.023438 53.71875 185.023438 53.769531 Z M 185.023438 53.769531 " fill-opacity="1" fill-rule="nonzero"/></g></g></g><g clip-path="url(#3ca20d1161)"><g clip-path="url(#4e29ca7ad9)"><g clip-path="url(#78404cbe63)"><path fill="#f3c257" d="M 181.207031 58.726562 C 181.210938 58.773438 181.175781 58.800781 181.113281 58.800781 C 181.046875 58.804688 181.015625 58.78125 181.015625 58.734375 C 181.011719 58.683594 181.042969 58.660156 181.109375 58.65625 C 181.171875 58.65625 181.207031 58.679688 181.207031 58.726562 Z M 181.207031 58.726562 " fill-opacity="1" fill-rule="nonzero"/></g></g></g><g clip-path="url(#4b7c38a011)"><g clip-path="url(#f7062f123f)"><g clip-path="url(#13b31b02ab)"><path fill="#f3c257" d="M 174.027344 64.5625 C 174.03125 64.613281 174 64.636719 173.933594 64.640625 C 173.871094 64.640625 173.835938 64.617188 173.835938 64.570312 C 173.832031 64.519531 173.863281 64.496094 173.929688 64.496094 C 173.992188 64.492188 174.027344 64.515625 174.027344 64.5625 Z M 174.027344 64.5625 " fill-opacity="1" fill-rule="nonzero"/></g></g></g><g clip-path="url(#3339762098)"><g clip-path="url(#5775049777)"><g clip-path="url(#5c3b966c2d)"><path fill="#f3c257" d="M 170.078125 67.542969 C 170.078125 67.589844 170.046875 67.617188 169.984375 67.617188 C 169.917969 67.621094 169.886719 67.597656 169.882812 67.546875 C 169.882812 67.5 169.914062 67.472656 169.980469 67.472656 C 170.042969 67.46875 170.078125 67.492188 170.078125 67.542969 Z M 170.078125 67.542969 " fill-opacity="1" fill-rule="nonzero"/></g></g></g><g clip-path="url(#d713379170)"><g clip-path="url(#ec3aea15c4)"><g clip-path="url(#c1c23c8603)"><path fill="#f3c257" d="M 166.59375 73.046875 C 166.59375 73.09375 166.5625 73.121094 166.496094 73.121094 C 166.433594 73.125 166.398438 73.101562 166.398438 73.054688 C 166.398438 73.003906 166.429688 72.980469 166.492188 72.976562 C 166.558594 72.976562 166.589844 73 166.59375 73.046875 Z M 166.59375 73.046875 " fill-opacity="1" fill-rule="nonzero"/></g></g></g><g clip-path="url(#c60722730c)"><g clip-path="url(#a7852b6806)"><g clip-path="url(#fe1bce6ed9)"><path fill="#f3c257" d="M 162.695312 77.789062 C 162.695312 77.839844 162.664062 77.863281 162.601562 77.867188 C 162.535156 77.867188 162.503906 77.84375 162.503906 77.796875 C 162.5 77.75 162.53125 77.722656 162.597656 77.722656 C 162.660156 77.71875 162.695312 77.742188 162.695312 77.789062 Z M 162.695312 77.789062 " fill-opacity="1" fill-rule="nonzero"/></g></g></g><g clip-path="url(#3aa6ea12e9)"><g clip-path="url(#e35eda6ef0)"><g clip-path="url(#bc67f62f8e)"><path fill="#f3c257" d="M 154.164062 83.667969 C 154.164062 83.71875 154.132812 83.742188 154.066406 83.746094 C 154.003906 83.746094 153.96875 83.722656 153.96875 83.675781 C 153.96875 83.628906 154 83.601562 154.0625 83.601562 C 154.128906 83.597656 154.160156 83.621094 154.164062 83.667969 Z M 154.164062 83.667969 " fill-opacity="1" fill-rule="nonzero"/></g></g></g><g clip-path="url(#0e575a5602)"><g clip-path="url(#0f28f68f1a)"><g clip-path="url(#a543a23509)"><path fill="#f3c257" d="M 149.414062 87.445312 C 149.414062 87.496094 149.382812 87.519531 149.320312 87.523438 C 149.253906 87.523438 149.222656 87.5 149.21875 87.453125 C 149.21875 87.402344 149.25 87.378906 149.3125 87.378906 C 149.378906 87.375 149.410156 87.398438 149.414062 87.445312 Z M 149.414062 87.445312 " fill-opacity="1" fill-rule="nonzero"/></g></g></g><g clip-path="url(#81bb90b763)"><g clip-path="url(#f04b24c445)"><g clip-path="url(#31b9177878)"><path fill="#f3c257" d="M 147.132812 89.621094 C 147.132812 89.671875 147.101562 89.695312 147.039062 89.699219 C 146.972656 89.699219 146.941406 89.675781 146.9375 89.628906 C 146.9375 89.582031 146.96875 89.554688 147.03125 89.554688 C 147.097656 89.550781 147.128906 89.574219 147.132812 89.621094 Z M 147.132812 89.621094 " fill-opacity="1" fill-rule="nonzero"/></g></g></g><g clip-path="url(#a7a8307fce)"><g clip-path="url(#84f49e9a79)"><g clip-path="url(#ae58b2aad1)"><path fill="#f3c257" d="M 142.171875 92.875 C 142.175781 92.921875 142.144531 92.949219 142.078125 92.949219 C 142.015625 92.953125 141.980469 92.929688 141.980469 92.878906 C 141.976562 92.832031 142.007812 92.804688 142.074219 92.804688 C 142.136719 92.800781 142.171875 92.824219 142.171875 92.875 Z M 142.171875 92.875 " fill-opacity="1" fill-rule="nonzero"/></g></g></g><g clip-path="url(#2db191ee8a)"><g clip-path="url(#bb3c056400)"><g clip-path="url(#ac5ce0e086)"><path fill="#f3c257" d="M 139.390625 95.257812 C 139.390625 95.308594 139.359375 95.332031 139.296875 95.335938 C 139.230469 95.335938 139.199219 95.3125 139.195312 95.265625 C 139.195312 95.21875 139.226562 95.191406 139.289062 95.191406 C 139.355469 95.1875 139.386719 95.210938 139.390625 95.257812 Z M 139.390625 95.257812 " fill-opacity="1" fill-rule="nonzero"/></g></g></g><g clip-path="url(#552d092104)"><g clip-path="url(#20413c753a)"><g clip-path="url(#ac8bd4d044)"><path fill="#f3c257" d="M 135.085938 98.5625 C 135.085938 98.609375 135.054688 98.636719 134.992188 98.636719 C 134.925781 98.640625 134.894531 98.617188 134.890625 98.570312 C 134.890625 98.519531 134.921875 98.496094 134.988281 98.492188 C 135.050781 98.492188 135.085938 98.515625 135.085938 98.5625 Z M 135.085938 98.5625 " fill-opacity="1" fill-rule="nonzero"/></g></g></g><g clip-path="url(#88791b33af)"><g clip-path="url(#51a98713d6)"><g clip-path="url(#dfa5c83c49)"><path fill="#f3c257" d="M 137.261719 98.519531 C 137.265625 98.566406 137.234375 98.59375 137.167969 98.59375 C 137.105469 98.597656 137.070312 98.574219 137.070312 98.527344 C 137.066406 98.476562 137.101562 98.453125 137.164062 98.449219 C 137.230469 98.449219 137.261719 98.472656 137.261719 98.519531 Z M 137.261719 98.519531 " fill-opacity="1" fill-rule="nonzero"/></g></g></g><g clip-path="url(#04d86bea16)"><g clip-path="url(#70c6673d47)"><g clip-path="url(#1125c7e62a)"><path fill="#f3c257" d="M 150.433594 89.882812 C 150.433594 89.933594 150.402344 89.957031 150.335938 89.960938 C 150.273438 89.960938 150.238281 89.9375 150.238281 89.890625 C 150.238281 89.84375 150.269531 89.816406 150.332031 89.816406 C 150.398438 89.8125 150.429688 89.835938 150.433594 89.882812 Z M 150.433594 89.882812 " fill-opacity="1" fill-rule="nonzero"/></g></g></g><g clip-path="url(#6be226d22b)"><g clip-path="url(#ad548b49ce)"><g clip-path="url(#eb2517123d)"><path fill="#f3c257" d="M 165.363281 77.152344 C 165.363281 77.199219 165.332031 77.226562 165.269531 77.226562 C 165.203125 77.230469 165.171875 77.207031 165.167969 77.15625 C 165.167969 77.109375 165.199219 77.085938 165.265625 77.082031 C 165.328125 77.082031 165.363281 77.101562 165.363281 77.152344 Z M 165.363281 77.152344 " fill-opacity="1" fill-rule="nonzero"/></g></g></g><g clip-path="url(#ced3c55ad9)"><g clip-path="url(#a2be23b71c)"><g clip-path="url(#dce839d732)"><path fill="#f3c257" d="M 173.671875 69.511719 C 173.675781 69.5625 173.644531 69.585938 173.578125 69.589844 C 173.511719 69.589844 173.480469 69.566406 173.480469 69.519531 C 173.476562 69.46875 173.507812 69.445312 173.574219 69.445312 C 173.636719 69.441406 173.671875 69.464844 173.671875 69.511719 Z M 173.671875 69.511719 " fill-opacity="1" fill-rule="nonzero"/></g></g></g><g clip-path="url(#ed4cf8e745)"><g clip-path="url(#3bb17f91b4)"><g clip-path="url(#db128bead2)"><path fill="#f3c257" d="M 181.28125 59.546875 C 181.28125 59.597656 181.25 59.621094 181.1875 59.625 C 181.121094 59.625 181.089844 59.601562 181.089844 59.554688 C 181.085938 59.503906 181.117188 59.480469 181.183594 59.476562 C 181.246094 59.476562 181.28125 59.5 181.28125 59.546875 Z M 181.28125 59.546875 " fill-opacity="1" fill-rule="nonzero"/></g></g></g><g clip-path="url(#dc11192855)"><g clip-path="url(#f3a27d44f2)"><g clip-path="url(#37a1fc5184)"><path fill="#f3c257" d="M 188.265625 51.367188 C 188.269531 51.417969 188.238281 51.441406 188.171875 51.445312 C 188.109375 51.445312 188.074219 51.421875 188.074219 51.375 C 188.074219 51.324219 188.105469 51.300781 188.167969 51.300781 C 188.234375 51.296875 188.265625 51.320312 188.265625 51.367188 Z M 188.265625 51.367188 " fill-opacity="1" fill-rule="nonzero"/></g></g></g><g clip-path="url(#daabb4cc08)"><g clip-path="url(#f4d1df52fd)"><g clip-path="url(#49f144dcc2)"><path fill="#f3c257" d="M 198.398438 43.140625 C 198.398438 43.1875 198.367188 43.214844 198.304688 43.214844 C 198.238281 43.21875 198.207031 43.195312 198.207031 43.148438 C 198.203125 43.097656 198.234375 43.074219 198.300781 43.070312 C 198.363281 43.070312 198.398438 43.09375 198.398438 43.140625 Z M 198.398438 43.140625 " fill-opacity="1" fill-rule="nonzero"/></g></g></g><g clip-path="url(#10cb4a6c42)"><g clip-path="url(#76f0f21355)"><g clip-path="url(#4d29dc4c62)"><path fill="#99302c" d="M 131.394531 55.679688 C 131.003906 56.042969 130.96875 56.632812 131.316406 57.003906 L 143.097656 69.652344 C 143.441406 70.023438 144.03125 70.03125 144.421875 69.667969 L 155.308594 59.527344 C 155.699219 59.164062 155.734375 58.574219 155.390625 58.203125 L 145.628906 47.722656 L 140.003906 47.660156 Z M 139.949219 48.601562 L 145.570312 48.664062 L 143.292969 50.785156 C 142.902344 51.148438 142.3125 51.140625 141.96875 50.769531 Z M 137.929688 59.527344 L 145.65625 52.332031 L 146.28125 53 L 138.554688 60.195312 Z M 140.421875 62.203125 L 148.148438 55.007812 L 148.773438 55.675781 L 141.046875 62.871094 Z M 142.914062 64.878906 L 150.640625 57.683594 L 151.265625 58.351562 L 143.539062 65.546875 Z M 142.914062 64.878906 " fill-opacity="1" fill-rule="nonzero"/></g></g></g><g clip-path="url(#0b0b6051b1)"><g clip-path="url(#75d8f6d9a6)"><g clip-path="url(#22fa229deb)"><g clip-path="url(#3a9cd0d53d)"><g clip-path="url(#8fa654e52d)"><path stroke-linecap="butt" transform="matrix(0.0538544, -0.0538544, 0.0536284, 0.0536284, 161.92719, 90.83689)" fill="none" stroke-linejoin="round" d="M 29.589421 74.71095 L 137.301655 147.695775 L 241.568549 72.635034 L 134.218982 0.0144043 Z M 29.589421 74.71095 " stroke="#ffffff" stroke-width="1.738" stroke-opacity="1" stroke-miterlimit="10"/></g></g></g></g></g><g clip-path="url(#2d43ae9645)"><g clip-path="url(#05c23a6a94)"><g clip-path="url(#e5867705f1)"><g clip-path="url(#1a6ae9e707)"><g clip-path="url(#fa8290f950)"><path stroke-linecap="butt" transform="matrix(0.0538544, -0.0538544, 0.0536284, 0.0536284, 161.92719, 90.83689)" fill="none" stroke-linejoin="round" d="M 131.752843 24.342679 L 203.016998 73.327006 " stroke="#ffffff" stroke-width="3.475" stroke-opacity="1" stroke-miterlimit="10"/></g></g></g></g></g><g clip-path="url(#6a7a8fc84b)"><g clip-path="url(#5c8862c403)"><g clip-path="url(#0fd962b583)"><g clip-path="url(#d047804463)"><g clip-path="url(#1651a0ca42)"><path stroke-linecap="butt" transform="matrix(0.0538544, -0.0538544, 0.0536284, 0.0536284, 161.92719, 90.83689)" fill="none" stroke-linejoin="round" d="M 114.743739 34.066706 L 187.712431 85.491144 " stroke="#ffffff" stroke-width="3.475" stroke-opacity="1" stroke-miterlimit="10"/></g></g></g></g></g><g clip-path="url(#e44bd4105c)"><g clip-path="url(#a583e24956)"><g clip-path="url(#c5a5250497)"><g clip-path="url(#912552d8e6)"><g clip-path="url(#1562ae7846)"><path stroke-linecap="butt" transform="matrix(0.0538544, -0.0538544, 0.0536284, 0.0536284, 161.92719, 90.83689)" fill="none" stroke-linejoin="round" d="M 99.80184 45.866647 L 172.770532 96.271337 " stroke="#ffffff" stroke-width="3.475" stroke-opacity="1" stroke-miterlimit="10"/></g></g></g></g></g><g clip-path="url(#3d9b7785eb)"><g clip-path="url(#a02bf4ddef)"><g clip-path="url(#0ac8140523)"><g clip-path="url(#8f64a15d5f)"><g clip-path="url(#73cca41aea)"><path stroke-linecap="butt" transform="matrix(0.0538544, -0.0538544, 0.0536284, 0.0536284, 161.92719, 90.83689)" fill="none" stroke-linejoin="round" d="M 79.63753 59.050533 L 151.590753 109.819419 " stroke="#ffffff" stroke-width="3.475" stroke-opacity="1" stroke-miterlimit="10"/></g></g></g></g></g><g clip-path="url(#c05405d172)"><g clip-path="url(#4b2b303a39)"><g clip-path="url(#a3fe59c636)"><g clip-path="url(#8d01361fa9)"><g clip-path="url(#c137c71fa6)"><path stroke-linecap="butt" transform="matrix(0.0538544, -0.0538544, 0.0536284, 0.0536284, 161.92719, 90.83689)" fill="none" stroke-linejoin="round" d="M 62.265758 74.018978 L 134.509116 123.039724 " stroke="#ffffff" stroke-width="3.475" stroke-opacity="1" stroke-miterlimit="10"/></g></g></g></g></g><g clip-path="url(#85e87701f0)"><g clip-path="url(#dbecd072c3)"><g clip-path="url(#8f6c8642e9)"><g clip-path="url(#6a4dbb82d3)"><g clip-path="url(#4790b220eb)"><path stroke-linecap="butt" transform="matrix(0.0538544, -0.0538544, 0.0536284, 0.0536284, 161.92719, 90.83689)" fill="none" stroke-linejoin="round" d="M 54.976143 91.75531 L 29.952088 110.183614 L 137.664323 182.804244 L 241.568549 107.015112 L 217.269829 90.699143 L 136.975254 148.387747 Z M 54.976143 91.75531 " stroke="#ffffff" stroke-width="1.738" stroke-opacity="1" stroke-miterlimit="10"/></g></g></g></g></g><g clip-path="url(#146ba2b2e2)"><g clip-path="url(#ef768fab8b)"><g clip-path="url(#817c74cae1)"><g clip-path="url(#a42b744b76)"><g clip-path="url(#6639fa659d)"><path stroke-linecap="butt" transform="matrix(0.0538544, -0.0538544, 0.0536284, 0.0536284, 161.92719, 90.83689)" fill="none" stroke-linejoin="round" d="M 54.794809 126.82736 L 29.770754 145.255664 L 137.519256 217.912713 L 241.423482 142.12358 L 217.052229 125.807611 L 136.830187 183.496216 Z M 54.794809 126.82736 " stroke="#ffffff" stroke-width="1.738" stroke-opacity="1" stroke-miterlimit="10"/></g></g></g></g></g><g clip-path="url(#24f2626de0)"><g clip-path="url(#50fe384f01)"><g clip-path="url(#c3475dd37f)"><g clip-path="url(#3ffd0e946b)"><g clip-path="url(#3c6e8a6199)"><path stroke-linecap="butt" transform="matrix(0.0538544, -0.0538544, 0.0536284, 0.0536284, 161.92719, 90.83689)" fill="none" stroke-linejoin="round" d="M 54.250808 476.92872 L 29.952088 495.357025 L 137.664323 567.977654 L 241.604815 492.224941 L 217.233562 475.908972 L 137.664323 533.233381 Z M 54.250808 476.92872 " stroke="#ffffff" stroke-width="1.738" stroke-opacity="1" stroke-miterlimit="10"/></g></g></g></g></g><g clip-path="url(#ac0495e9a2)"><g clip-path="url(#f60f853e7c)"><g clip-path="url(#5944ad37be)"><g clip-path="url(#a1943daa84)"><g clip-path="url(#d9e4f6ba25)"><path stroke-linecap="butt" transform="matrix(0.0538544, -0.0538544, 0.0536284, 0.0536284, 161.92719, 90.83689)" fill="none" stroke-linejoin="round" d="M 54.794809 162.081507 L 29.770754 180.509811 L 137.519256 253.094021 L 241.423482 177.377728 L 217.088495 161.025339 L 136.793921 218.713944 Z M 54.794809 162.081507 " stroke="#ffffff" stroke-width="1.738" stroke-opacity="1" stroke-miterlimit="10"/></g></g></g></g></g><g clip-path="url(#a32aa3882a)"><g clip-path="url(#7c075122a4)"><g clip-path="url(#4a3e089b1f)"><g clip-path="url(#3c6b350a3a)"><g clip-path="url(#15b0bcbf78)"><path stroke-linecap="butt" transform="matrix(0.0538544, -0.0538544, 0.0536284, 0.0536284, 161.92719, 90.83689)" fill="none" stroke-linejoin="round" d="M 55.592677 196.752941 L 30.532356 215.144826 L 138.317124 287.765455 L 242.185083 212.012742 L 217.886364 195.696773 L 137.591789 253.385378 Z M 55.592677 196.752941 " stroke="#ffffff" stroke-width="1.738" stroke-opacity="1" stroke-miterlimit="10"/></g></g></g></g></g><g clip-path="url(#d4e71829c1)"><g clip-path="url(#87c7c4bf7c)"><g clip-path="url(#e87c442caf)"><g clip-path="url(#5a6ff4b063)"><g clip-path="url(#57691d8604)"><path stroke-linecap="butt" transform="matrix(0.0538544, -0.0538544, 0.0536284, 0.0536284, 161.92719, 90.83689)" fill="none" stroke-linejoin="round" d="M 55.411344 231.82499 L 30.387289 250.253294 L 138.099524 322.873924 L 242.040016 247.121211 L 217.70503 230.768823 L 137.446722 288.493847 Z M 55.411344 231.82499 " stroke="#ffffff" stroke-width="1.738" stroke-opacity="1" stroke-miterlimit="10"/></g></g></g></g></g><g clip-path="url(#9f373836cd)"><g clip-path="url(#2fefc0c421)"><g clip-path="url(#59b17dbfa5)"><g clip-path="url(#83abc586e8)"><g clip-path="url(#e4c48acaab)"><path stroke-linecap="butt" transform="matrix(0.0538544, -0.0538544, 0.0536284, 0.0536284, 161.92719, 90.83689)" fill="none" stroke-linejoin="round" d="M 55.411344 267.079137 L 30.387289 285.434603 L 138.13579 358.091652 L 242.00375 282.338939 L 217.70503 266.02297 L 137.410455 323.711574 Z M 55.411344 267.079137 " stroke="#ffffff" stroke-width="1.738" stroke-opacity="1" stroke-miterlimit="10"/></g></g></g></g></g><g clip-path="url(#42133b7bd8)"><g clip-path="url(#b4d22f14a2)"><g clip-path="url(#386ffe6e32)"><g clip-path="url(#14dad2d219)"><g clip-path="url(#e744b54459)"><path stroke-linecap="butt" transform="matrix(0.0538544, -0.0538544, 0.0536284, 0.0536284, 161.92719, 90.83689)" fill="none" stroke-linejoin="round" d="M 56.172945 302.005509 L 31.148891 320.433813 L 138.861125 393.054443 L 242.765351 317.26531 L 218.466632 300.949341 L 138.172057 358.637945 Z M 56.172945 302.005509 " stroke="#ffffff" stroke-width="1.738" stroke-opacity="1" stroke-miterlimit="10"/></g></g></g></g></g><g clip-path="url(#46ed51fce9)"><g clip-path="url(#da03c2ca47)"><g clip-path="url(#efa19f7acb)"><g clip-path="url(#742b5dddcb)"><g clip-path="url(#dbe7690793)"><path stroke-linecap="butt" transform="matrix(0.0538544, -0.0538544, 0.0536284, 0.0536284, 161.92719, 90.83689)" fill="none" stroke-linejoin="round" d="M 55.955345 337.113977 L 30.93129 355.542282 L 138.716058 428.162911 L 242.584018 352.410198 L 218.249031 336.05781 L 137.990723 393.782834 Z M 55.955345 337.113977 " stroke="#ffffff" stroke-width="1.738" stroke-opacity="1" stroke-miterlimit="10"/></g></g></g></g></g><g clip-path="url(#7c370c718f)"><g clip-path="url(#09862c4095)"><g clip-path="url(#aa71bada64)"><g clip-path="url(#06188e118e)"><g clip-path="url(#38ffad754c)"><path stroke-linecap="butt" transform="matrix(0.0538544, -0.0538544, 0.0536284, 0.0536284, 161.92719, 90.83689)" fill="none" stroke-linejoin="round" d="M 56.136678 372.404544 L 31.112624 390.832849 L 138.861125 463.489898 L 242.765351 387.700765 L 218.466632 371.384796 L 138.172057 429.073401 Z M 56.136678 372.404544 " stroke="#ffffff" stroke-width="1.738" stroke-opacity="1" stroke-miterlimit="10"/></g></g></g></g></g><g clip-path="url(#32eb70e84a)"><g clip-path="url(#fbbb58000d)"><g clip-path="url(#9b39b9db54)"><g clip-path="url(#9f2743d13a)"><g clip-path="url(#a3e346677f)"><path stroke-linecap="butt" transform="matrix(0.0538544, -0.0538544, 0.0536284, 0.0536284, 161.92719, 90.83689)" fill="none" stroke-linejoin="round" d="M 55.955345 407.549433 L 30.967557 425.941317 L 138.679791 498.561947 L 242.584018 422.845654 L 218.249031 406.493265 L 137.990723 464.218289 Z M 55.955345 407.549433 " stroke="#ffffff" stroke-width="1.738" stroke-opacity="1" stroke-miterlimit="10"/></g></g></g></g></g><g clip-path="url(#6dac148e1f)"><g clip-path="url(#6da44985d2)"><g clip-path="url(#2743f91ad6)"><g clip-path="url(#72154bed7e)"><g clip-path="url(#f86d3b5712)"><path stroke-linecap="butt" transform="matrix(0.0538544, -0.0538544, 0.0536284, 0.0536284, 161.92719, 90.83689)" fill="none" stroke-linejoin="round" d="M 55.991611 442.76716 L 30.93129 461.159045 L 138.679791 533.816094 L 242.584018 458.026962 L 218.285298 441.710993 L 137.990723 499.399597 Z M 55.991611 442.76716 " stroke="#ffffff" stroke-width="1.738" stroke-opacity="1" stroke-miterlimit="10"/></g></g></g></g></g><g clip-path="url(#80f209c3cc)"><g clip-path="url(#2c0c96ddde)"><g clip-path="url(#4e7dd00bdd)"><g clip-path="url(#5ac3f43a5c)"><g clip-path="url(#6289f21214)"><path stroke-linecap="butt" transform="matrix(0.0538544, -0.0538544, 0.0536284, 0.0536284, 161.92719, 90.83689)" fill="none" stroke-linejoin="round" d="M 54.069474 617.03482 L 29.770754 635.463124 L 137.482989 708.083754 L 241.350948 632.331041 L 217.052229 616.015072 L 137.482989 673.339481 Z M 54.069474 617.03482 " stroke="#ffffff" stroke-width="1.738" stroke-opacity="1" stroke-miterlimit="10"/></g></g></g></g></g><g clip-path="url(#956144cd29)"><g clip-path="url(#519beaf2e0)"><g clip-path="url(#494169795e)"><g clip-path="url(#026042deec)"><g clip-path="url(#847b112f12)"><path stroke-linecap="butt" transform="matrix(0.0538544, -0.0538544, 0.0536284, 0.0536284, 161.92719, 90.83689)" fill="none" stroke-linejoin="round" d="M 55.955345 512.510644 L 30.93129 530.938948 L 138.643525 603.559578 L 242.584018 527.806865 L 218.212765 511.490896 L 137.954457 569.143081 Z M 55.955345 512.510644 " stroke="#ffffff" stroke-width="1.738" stroke-opacity="1" stroke-miterlimit="10"/></g></g></g></g></g><g clip-path="url(#89b29444d6)"><g clip-path="url(#bb3dd14a20)"><g clip-path="url(#5fd0874281)"><g clip-path="url(#aa97a1b46b)"><g clip-path="url(#8ca6337b9a)"><path stroke-linecap="butt" transform="matrix(0.0538544, -0.0538544, 0.0536284, 0.0536284, 161.92719, 90.83689)" fill="none" stroke-linejoin="round" d="M 55.774011 547.655532 L 30.749957 566.083837 L 138.462191 638.704466 L 242.366417 562.915334 L 218.067698 546.599365 L 137.773123 604.287969 Z M 55.774011 547.655532 " stroke="#ffffff" stroke-width="1.738" stroke-opacity="1" stroke-miterlimit="10"/></g></g></g></g></g><g clip-path="url(#29f00deac8)"><g clip-path="url(#081b973623)"><g clip-path="url(#3f84e7636d)"><g clip-path="url(#6541d6ea34)"><g clip-path="url(#49296ab31b)"><path stroke-linecap="butt" transform="matrix(0.0538544, -0.0538544, 0.0536284, 0.0536284, 161.92719, 90.83689)" fill="none" stroke-linejoin="round" d="M 55.774011 582.83684 L 30.749957 601.265145 L 138.462191 673.885774 L 242.402684 598.133061 L 218.067698 581.780673 L 137.773123 639.469277 Z M 55.774011 582.83684 " stroke="#ffffff" stroke-width="1.738" stroke-opacity="1" stroke-miterlimit="10"/></g></g></g></g></g></svg>